<svg width="133" height="73" viewBox="0 0 133 73" fill="none" xmlns="http://www.w3.org/2000/svg">
<path fill-rule="evenodd" clip-rule="evenodd" d="M37.2438 13.6633C32.5921 12.1346 24.2687 4.25009 19.7267 2.42158C13.1075 -0.233417 11.6447 10.0062 17.4959 23.1715C7.25627 19.5145 -7.37181 24.6343 10.1819 38.531C2.13644 37.7996 -1.52058 50.2335 22.2866 51.9011" fill="#FEC2DE"/>
<path d="M37.2438 13.6633C32.5921 12.1346 24.2687 4.25009 19.7267 2.42158C13.1075 -0.233417 11.6447 10.0062 17.4959 23.1715C7.25627 19.5145 -7.37181 24.6343 10.1819 38.531C2.13644 37.7996 -1.52058 50.2335 22.2866 51.9011" stroke="#C0216B" stroke-width="3" stroke-linecap="round" stroke-linejoin="round"/>
<path fill-rule="evenodd" clip-rule="evenodd" d="M20.5239 44.6455C18.22 45.6183 15.9161 45.6183 13.6049 44.6455H20.5239Z" fill="#FEC2DE"/>
<path d="M20.5239 44.6455C18.22 45.6183 15.9161 45.6183 13.6049 44.6455" stroke="#C0216B" stroke-width="3" stroke-linecap="round" stroke-linejoin="round"/>
<path fill-rule="evenodd" clip-rule="evenodd" d="M21.8697 33.0456C19.4195 33.4917 16.9693 33.1187 14.5703 31.217L21.8697 33.0456Z" fill="#FEC2DE"/>
<path d="M21.8697 33.0456C19.4195 33.4917 16.9693 33.1187 14.5703 31.217" stroke="#C0216B" stroke-width="3" stroke-linecap="round" stroke-linejoin="round"/>
<path fill-rule="evenodd" clip-rule="evenodd" d="M29.7836 20.0923C26.8872 18.6807 24.9855 17.269 24.0713 15.8647L29.7836 20.0923Z" fill="#FEC2DE"/>
<path d="M29.7836 20.0923C26.8872 18.6807 24.9855 17.269 24.0713 15.8647" stroke="#C0216B" stroke-width="3" stroke-linecap="round" stroke-linejoin="round"/>
<path fill-rule="evenodd" clip-rule="evenodd" d="M95.7561 13.6633C100.408 12.1346 108.731 4.25009 113.273 2.42158C119.892 -0.233417 121.355 10.0062 115.504 23.1715C125.744 19.5145 140.372 24.6343 122.818 38.531C130.864 37.7996 134.521 50.2335 110.713 51.9011" fill="#FEC2DE"/>
<path d="M95.7561 13.6633C100.408 12.1346 108.731 4.25009 113.273 2.42158C119.892 -0.233417 121.355 10.0062 115.504 23.1715C125.744 19.5145 140.372 24.6343 122.818 38.531C130.864 37.7996 134.521 50.2335 110.713 51.9011" stroke="#C0216B" stroke-width="3" stroke-linecap="round" stroke-linejoin="round"/>
<path fill-rule="evenodd" clip-rule="evenodd" d="M112.469 44.6455C114.773 45.6183 117.077 45.6183 119.388 44.6455H112.469Z" fill="#FEC2DE"/>
<path d="M112.469 44.6455C114.773 45.6183 117.077 45.6183 119.388 44.6455" stroke="#C0216B" stroke-width="3" stroke-linecap="round" stroke-linejoin="round"/>
<path fill-rule="evenodd" clip-rule="evenodd" d="M111.123 33.0456C113.573 33.4917 116.023 33.1187 118.422 31.217L111.123 33.0456Z" fill="#FEC2DE"/>
<path d="M111.123 33.0456C113.573 33.4917 116.023 33.1187 118.422 31.217" stroke="#C0216B" stroke-width="3" stroke-linecap="round" stroke-linejoin="round"/>
<path fill-rule="evenodd" clip-rule="evenodd" d="M103.209 20.0923C106.106 18.6807 108.007 17.269 108.921 15.8647L103.209 20.0923Z" fill="#FEC2DE"/>
<path d="M103.209 20.0923C106.106 18.6807 108.007 17.269 108.921 15.8647" stroke="#C0216B" stroke-width="3" stroke-linecap="round" stroke-linejoin="round"/>
<path fill-rule="evenodd" clip-rule="evenodd" d="M112.578 42.1881C112.578 62.3822 91.9455 71.4443 66.5 71.4443C41.0544 71.4443 20.4215 62.3822 20.4215 42.1881C20.4215 21.9941 41.0471 5.61792 66.5 5.61792C91.9528 5.61792 112.578 21.9941 112.578 42.1881Z" fill="#FEC2DE" stroke="#C0216B" stroke-width="3" stroke-linecap="round" stroke-linejoin="round"/>
<path d="M72.7169 49.1365C72.7169 49.1365 66.5 55.3534 59.5516 49.1365" stroke="black" stroke-width="3" stroke-miterlimit="10" stroke-linecap="round"/>
<path d="M44.9236 41.0911C47.3472 41.0911 49.312 39.1263 49.312 36.7026C49.312 34.279 47.3472 32.3142 44.9236 32.3142C42.4999 32.3142 40.5352 34.279 40.5352 36.7026C40.5352 39.1263 42.4999 41.0911 44.9236 41.0911Z" fill="black"/>
<path d="M45.6549 35.9713C46.4628 35.9713 47.1178 35.3163 47.1178 34.5085C47.1178 33.7006 46.4628 33.0457 45.6549 33.0457C44.8471 33.0457 44.1921 33.7006 44.1921 34.5085C44.1921 35.3163 44.8471 35.9713 45.6549 35.9713Z" fill="white"/>
<path d="M88.0764 41.0911C90.5001 41.0911 92.4648 39.1263 92.4648 36.7026C92.4648 34.279 90.5001 32.3142 88.0764 32.3142C85.6528 32.3142 83.688 34.279 83.688 36.7026C83.688 39.1263 85.6528 41.0911 88.0764 41.0911Z" fill="black"/>
<path d="M87.345 35.9713C88.1529 35.9713 88.8078 35.3163 88.8078 34.5085C88.8078 33.7006 88.1529 33.0457 87.345 33.0457C86.5371 33.0457 85.8822 33.7006 85.8822 34.5085C85.8822 35.3163 86.5371 35.9713 87.345 35.9713Z" fill="white"/>
<path d="M44.9236 45.1138C49.5689 45.1138 53.3347 41.348 53.3347 36.7027C53.3347 32.0573 49.5689 28.2915 44.9236 28.2915C40.2782 28.2915 36.5125 32.0573 36.5125 36.7027C36.5125 41.348 40.2782 45.1138 44.9236 45.1138Z" stroke="black" stroke-width="3" stroke-linecap="round" stroke-linejoin="round"/>
<path d="M36.5124 36.3369L23.3472 31.9485" stroke="black" stroke-width="3" stroke-linecap="round" stroke-linejoin="round"/>
<path d="M53.3347 38.5312C62.1116 37.0684 70.8884 37.0684 79.6653 38.5312" stroke="black" stroke-width="3" stroke-linecap="round" stroke-linejoin="round"/>
<path d="M88.0764 45.1138C92.7218 45.1138 96.4876 41.348 96.4876 36.7027C96.4876 32.0573 92.7218 28.2915 88.0764 28.2915C83.4311 28.2915 79.6653 32.0573 79.6653 36.7027C79.6653 41.348 83.4311 45.1138 88.0764 45.1138Z" stroke="black" stroke-width="3" stroke-linecap="round" stroke-linejoin="round"/>
<path d="M96.4875 36.3369L109.653 31.9485" stroke="black" stroke-width="3" stroke-linecap="round" stroke-linejoin="round"/>
</svg>
