<svg width="89" height="16" viewBox="0 0 89 16" fill="none" xmlns="http://www.w3.org/2000/svg">
<path d="M85.7581 3.71579C85.7581 2.47719 85.8194 1.2386 85.9419 0L88.7185 0.0612496C88.7185 0.619298 88.7117 1.29304 88.6981 2.08247C88.6845 2.87191 88.6709 3.71578 88.6573 4.61411C88.6437 5.51243 88.63 6.44478 88.6164 7.41115C88.6164 8.37753 88.6164 9.30988 88.6164 10.2082C88.6164 11.1065 88.6232 11.9504 88.6368 12.7398C88.6505 13.5157 88.6709 14.1758 88.6981 14.7202C88.63 14.8019 88.4599 14.8427 88.1877 14.8427C87.9155 14.8563 87.616 14.8563 87.2894 14.8427C86.9763 14.8427 86.6769 14.8359 86.391 14.8223C86.1052 14.8087 85.9147 14.8155 85.8194 14.8427C85.9147 13.6177 85.9487 12.3859 85.9215 11.1474C85.9079 9.90876 85.8806 8.67016 85.8398 7.43157C85.799 6.19297 85.7717 4.95438 85.7581 3.71579Z" fill="#FEC2DE"/>
<path d="M80.9456 0.898301C81.177 0.911912 81.4084 0.905106 81.6398 0.877885V3.61368C81.6398 3.79062 81.6398 3.97437 81.6398 4.16493C81.6534 4.35548 81.6602 4.55284 81.6602 4.757C82.0821 4.74339 82.5245 4.72297 82.9872 4.69575C83.4636 4.66853 84.0489 4.6345 84.7431 4.59367C84.8383 4.70256 84.8928 4.86589 84.9064 5.08366C84.92 5.28783 84.92 5.51241 84.9064 5.7574C84.8928 6.0024 84.8724 6.2542 84.8451 6.51281C84.8315 6.75781 84.8383 6.96878 84.8656 7.14572H81.701C81.701 7.88071 81.701 8.60209 81.701 9.30986C81.701 10.004 81.7078 10.6573 81.7214 11.2698C81.8575 11.4604 82.0549 11.6101 82.3135 11.719C82.5721 11.8279 82.8511 11.9164 83.1506 11.9844C83.45 12.0389 83.7495 12.0729 84.0489 12.0865C84.3619 12.1001 84.6342 12.1001 84.8656 12.0865C84.8928 12.277 84.92 12.488 84.9472 12.7194C84.9744 12.9508 84.9949 13.189 85.0085 13.434C85.0221 13.679 85.0153 13.924 84.9881 14.169C84.9744 14.414 84.9336 14.6385 84.8656 14.8427C84.3211 14.8699 83.7563 14.8699 83.171 14.8427C82.5857 14.8019 82.0345 14.7202 81.5173 14.5977C81 14.4752 80.5373 14.2915 80.1289 14.0465C79.7342 13.8015 79.4484 13.468 79.2715 13.0461C79.0945 11.998 78.9924 11.0112 78.9652 10.0857C78.938 9.14653 78.9312 8.18015 78.9448 7.18655C78.727 7.20016 78.4956 7.20697 78.2506 7.20697C78.0193 7.20697 77.7606 7.20697 77.4748 7.20697L77.5361 4.71617C77.8083 4.72978 78.0601 4.73658 78.2915 4.73658C78.5365 4.73658 78.7679 4.73658 78.9856 4.73658C78.9856 4.43714 78.9788 4.11729 78.9652 3.77701C78.9516 3.42313 78.9448 3.06924 78.9448 2.71536C78.9448 2.36148 78.9448 2.0212 78.9448 1.69454C78.9584 1.36788 78.9788 1.07524 79.006 0.816635C79.183 0.789414 79.3735 0.782608 79.5777 0.796219C79.7955 0.80983 80.0201 0.830246 80.2514 0.857467C80.4828 0.871079 80.7142 0.88469 80.9456 0.898301Z" fill="#FEC2DE"/>
<path d="M68.9334 6.14534C69.0151 5.88673 69.0763 5.68257 69.1172 5.53285C69.2124 5.32868 69.3622 5.15174 69.5663 5.00202C69.7841 4.8523 70.0291 4.7298 70.3013 4.63452C70.5872 4.52564 70.8866 4.45078 71.1996 4.40994C71.5263 4.36911 71.853 4.34869 72.1796 4.34869C72.4518 4.37592 72.7105 4.38272 72.9555 4.36911C73.2141 4.34189 73.4863 4.34189 73.7721 4.36911C74.2077 4.39633 74.6228 4.4848 75.0175 4.63452C75.4122 4.77063 75.7525 4.9748 76.0383 5.24702C76.2289 5.36951 76.3786 5.56687 76.4875 5.83909C76.5964 6.11131 76.678 6.43117 76.7325 6.79866C76.7869 7.15255 76.821 7.54726 76.8346 7.98281C76.8482 8.40475 76.8618 8.8403 76.8754 9.28946C76.8618 9.68418 76.8414 10.1333 76.8142 10.6369C76.8005 11.1406 76.7665 11.6237 76.7121 12.0865C76.6712 12.5493 76.61 12.9644 76.5283 13.3319C76.4603 13.6994 76.3582 13.9512 76.2221 14.0873C75.9907 14.414 75.6844 14.6454 75.3033 14.7815C74.9358 14.9176 74.5343 14.9992 74.0988 15.0265C73.6632 15.0673 73.2141 15.0673 72.7513 15.0265C72.2885 14.9992 71.8666 14.9856 71.4855 14.9856C70.7913 14.8631 70.206 14.5637 69.7297 14.0873C69.3622 13.7607 69.1104 13.3523 68.9743 12.8623C68.8381 12.3723 68.7565 11.8619 68.7293 11.3311C68.702 10.7867 68.6952 10.2422 68.7088 9.69779C68.7361 9.15335 68.7293 8.65655 68.6884 8.20739C68.6884 7.9624 68.6952 7.72421 68.7088 7.49282C68.7225 7.24782 68.7497 6.99602 68.7905 6.73741C68.8041 6.58769 68.8518 6.39033 68.9334 6.14534ZM72.3634 7.49282C72.0775 7.57449 71.8462 7.72421 71.6692 7.94198C71.5876 7.99642 71.5263 8.13253 71.4855 8.35031C71.431 8.78586 71.4038 9.22141 71.4038 9.65696C71.4038 10.0789 71.3902 10.5281 71.363 11.0044C71.3494 11.3175 71.431 11.5625 71.608 11.7394C71.7849 11.9028 71.9959 12.0185 72.2409 12.0865C72.4995 12.141 72.7649 12.1546 73.0371 12.1273C73.3093 12.0865 73.5339 12.0185 73.7109 11.9232C73.9422 11.8143 74.0988 11.5897 74.1804 11.2494C74.2349 10.8139 74.2757 10.3783 74.3029 9.94279C74.3438 9.49363 74.3234 9.07169 74.2417 8.67697C74.1736 8.20059 73.9763 7.85351 73.6496 7.63573C73.3229 7.41796 72.8942 7.37032 72.3634 7.49282Z" fill="#FEC2DE"/>
<path d="M64.604 3.71579C64.604 2.47719 64.6653 1.2386 64.7878 0L67.5644 0.0612496C67.5644 0.619298 67.5576 1.29304 67.544 2.08247C67.5304 2.87191 67.5168 3.71578 67.5032 4.61411C67.4895 5.51243 67.4759 6.44478 67.4623 7.41115C67.4623 8.37753 67.4623 9.30988 67.4623 10.2082C67.4623 11.1065 67.4691 11.9504 67.4827 12.7398C67.4964 13.5157 67.5168 14.1758 67.544 14.7202C67.4759 14.8019 67.3058 14.8427 67.0336 14.8427C66.7614 14.8563 66.4619 14.8563 66.1353 14.8427C65.8222 14.8427 65.5228 14.8359 65.2369 14.8223C64.9511 14.8087 64.7606 14.8155 64.6653 14.8427C64.7606 13.6177 64.7946 12.3859 64.7674 11.1474C64.7538 9.90876 64.7265 8.67016 64.6857 7.43157C64.6449 6.19297 64.6176 4.95438 64.604 3.71579Z" fill="#FEC2DE"/>
<path d="M55.575 6.14534C55.6567 5.88673 55.718 5.68257 55.7588 5.53285C55.8541 5.32868 56.0038 5.15174 56.2079 5.00202C56.4257 4.8523 56.6707 4.7298 56.9429 4.63452C57.2288 4.52564 57.5282 4.45078 57.8413 4.40994C58.1679 4.36911 58.4946 4.34869 58.8212 4.34869C59.0935 4.37592 59.3521 4.38272 59.5971 4.36911C59.8557 4.34189 60.1279 4.34189 60.4137 4.36911C60.8493 4.39633 61.2644 4.4848 61.6591 4.63452C62.0538 4.77063 62.3941 4.9748 62.6799 5.24702C62.8705 5.36951 63.0202 5.56687 63.1291 5.83909C63.238 6.11131 63.3197 6.43117 63.3741 6.79866C63.4286 7.15255 63.4626 7.54726 63.4762 7.98281C63.4898 8.40475 63.5034 8.8403 63.517 9.28946C63.5034 9.68418 63.483 10.1333 63.4558 10.6369C63.4422 11.1406 63.4081 11.6237 63.3537 12.0865C63.3129 12.5493 63.2516 12.9644 63.1699 13.3319C63.1019 13.6994 62.9998 13.9512 62.8637 14.0873C62.6323 14.414 62.3261 14.6454 61.945 14.7815C61.5775 14.9176 61.1759 14.9992 60.7404 15.0265C60.3048 15.0673 59.8557 15.0673 59.3929 15.0265C58.9301 14.9992 58.5082 14.9856 58.1271 14.9856C57.4329 14.8631 56.8477 14.5637 56.3713 14.0873C56.0038 13.7607 55.752 13.3523 55.6159 12.8623C55.4798 12.3723 55.3981 11.8619 55.3709 11.3311C55.3437 10.7867 55.3368 10.2422 55.3505 9.69779C55.3777 9.15335 55.3709 8.65655 55.33 8.20739C55.33 7.9624 55.3368 7.72421 55.3505 7.49282C55.3641 7.24782 55.3913 6.99602 55.4321 6.73741C55.4457 6.58769 55.4934 6.39033 55.575 6.14534ZM59.005 7.49282C58.7192 7.57449 58.4878 7.72421 58.3108 7.94198C58.2292 7.99642 58.1679 8.13253 58.1271 8.35031C58.0726 8.78586 58.0454 9.22141 58.0454 9.65696C58.0454 10.0789 58.0318 10.5281 58.0046 11.0044C57.991 11.3175 58.0726 11.5625 58.2496 11.7394C58.4265 11.9028 58.6375 12.0185 58.8825 12.0865C59.1411 12.141 59.4065 12.1546 59.6787 12.1273C59.951 12.0865 60.1755 12.0185 60.3525 11.9232C60.5839 11.8143 60.7404 11.5897 60.8221 11.2494C60.8765 10.8139 60.9173 10.3783 60.9446 9.94279C60.9854 9.49363 60.965 9.07169 60.8833 8.67697C60.8153 8.20059 60.6179 7.85351 60.2912 7.63573C59.9646 7.41796 59.5358 7.37032 59.005 7.49282Z" fill="#FEC2DE"/>
<path d="M54.1419 5.79826C54.4141 6.38353 54.5502 7.04366 54.5502 7.77865C54.1147 7.84671 53.6315 7.88754 53.1007 7.90115C52.5835 7.91476 52.0935 7.87393 51.6307 7.77865C51.6715 7.61532 51.6511 7.45199 51.5694 7.28866C51.5014 7.12533 51.3925 6.98241 51.2428 6.85991C51.1067 6.73741 50.9433 6.64894 50.7528 6.5945C50.5758 6.52644 50.3989 6.49922 50.222 6.51283C49.9089 6.56728 49.6707 6.68978 49.5074 6.88033C49.3577 7.05727 49.2828 7.25463 49.2828 7.4724C49.2828 7.69018 49.3645 7.90795 49.5278 8.12573C49.6911 8.3435 49.9293 8.50683 50.2424 8.61572C51.0046 8.72461 51.7192 8.87433 52.3861 9.06488C53.053 9.24183 53.543 9.53446 53.8561 9.94279C54.1555 10.4328 54.3393 10.9364 54.4073 11.4536C54.4754 11.9572 54.3801 12.5833 54.1215 13.3319C53.8084 13.9988 53.3184 14.4752 52.6515 14.7611C51.9846 15.0469 51.2564 15.183 50.467 15.1694C49.7728 15.1966 49.1467 15.1354 48.5886 14.9856C48.0306 14.8359 47.5474 14.6113 47.1391 14.3119C46.7444 14.0125 46.4313 13.645 46.1999 13.2094C45.9821 12.7739 45.8733 12.2839 45.8733 11.7394V11.6782V11.6374C46.3224 11.5829 46.8328 11.5693 47.4045 11.5965C47.9761 11.6101 48.473 11.6169 48.8949 11.6169C48.9085 11.93 49.0514 12.1886 49.3236 12.3928C49.6095 12.5833 49.9089 12.699 50.222 12.7398C50.535 12.7671 50.8208 12.7058 51.0794 12.5561C51.3381 12.4064 51.4606 12.1341 51.4469 11.7394C51.4878 11.4128 51.4129 11.1678 51.2224 11.0044C51.0318 10.8411 50.78 10.7186 50.467 10.6369C50.1539 10.5417 49.8 10.46 49.4053 10.392C49.0106 10.3239 48.6227 10.2082 48.2416 10.0449C47.4794 9.78626 46.9213 9.38474 46.5674 8.8403C46.2271 8.28226 46.0638 7.7106 46.0774 7.12533C46.1046 6.52644 46.2952 5.9752 46.6491 5.4716C47.0166 4.96799 47.5338 4.62772 48.2007 4.45078C48.4593 4.38272 48.7724 4.32828 49.1399 4.28745C49.521 4.24661 49.9225 4.2262 50.3445 4.2262C50.7664 4.2262 51.1883 4.25342 51.6103 4.30786C52.0322 4.3487 52.4201 4.40994 52.774 4.49161C53.4137 4.76383 53.8697 5.19938 54.1419 5.79826Z" fill="white"/>
<path d="M44.9505 5.79826C45.2228 6.38353 45.3589 7.04366 45.3589 7.77865C44.9233 7.84671 44.4401 7.88754 43.9093 7.90115C43.3921 7.91476 42.9021 7.87393 42.4393 7.77865C42.4801 7.61532 42.4597 7.45199 42.3781 7.28866C42.31 7.12533 42.2011 6.98241 42.0514 6.85991C41.9153 6.73741 41.752 6.64894 41.5614 6.5945C41.3845 6.52644 41.2075 6.49922 41.0306 6.51283C40.7175 6.56728 40.4793 6.68978 40.316 6.88033C40.1663 7.05727 40.0914 7.25463 40.0914 7.4724C40.0914 7.69018 40.1731 7.90795 40.3364 8.12573C40.4998 8.3435 40.738 8.50683 41.051 8.61572C41.8132 8.72461 42.5278 8.87433 43.1947 9.06488C43.8617 9.24183 44.3517 9.53446 44.6647 9.94279C44.9641 10.4328 45.1479 10.9364 45.2159 11.4536C45.284 11.9572 45.1887 12.5833 44.9301 13.3319C44.6171 13.9988 44.1271 14.4752 43.4601 14.7611C42.7932 15.0469 42.065 15.183 41.2756 15.1694C40.5814 15.1966 39.9553 15.1354 39.3973 14.9856C38.8392 14.8359 38.356 14.6113 37.9477 14.3119C37.553 14.0125 37.2399 13.645 37.0086 13.2094C36.7908 12.7739 36.6819 12.2839 36.6819 11.7394V11.6782V11.6374C37.1311 11.5829 37.6415 11.5693 38.2131 11.5965C38.7848 11.6101 39.2816 11.6169 39.7035 11.6169C39.7171 11.93 39.86 12.1886 40.1323 12.3928C40.4181 12.5833 40.7175 12.699 41.0306 12.7398C41.3436 12.7671 41.6295 12.7058 41.8881 12.5561C42.1467 12.4064 42.2692 12.1341 42.2556 11.7394C42.2964 11.4128 42.2215 11.1678 42.031 11.0044C41.8404 10.8411 41.5886 10.7186 41.2756 10.6369C40.9625 10.5417 40.6086 10.46 40.2139 10.392C39.8192 10.3239 39.4313 10.2082 39.0502 10.0449C38.288 9.78626 37.7299 9.38474 37.376 8.8403C37.0358 8.28226 36.8724 7.7106 36.8861 7.12533C36.9133 6.52644 37.1038 5.9752 37.4577 5.4716C37.8252 4.96799 38.3424 4.62772 39.0094 4.45078C39.268 4.38272 39.581 4.32828 39.9485 4.28745C40.3296 4.24661 40.7311 4.2262 41.1531 4.2262C41.575 4.2262 41.997 4.25342 42.4189 4.30786C42.8408 4.3487 43.2288 4.40994 43.5826 4.49161C44.2224 4.76383 44.6783 5.19938 44.9505 5.79826Z" fill="white"/>
<path d="M31.2239 9.77945C30.9244 9.76584 30.7066 9.74543 30.5705 9.7182V10.0857C30.5841 10.494 30.5978 10.8275 30.6114 11.0861C30.6386 11.3447 30.7271 11.5965 30.8768 11.8415C31.0401 12.1546 31.2715 12.3859 31.5709 12.5357C31.8704 12.6854 32.163 12.733 32.4488 12.6786C32.7347 12.6241 32.9729 12.4608 33.1634 12.1886C33.3676 11.9028 33.456 11.4808 33.4288 10.9228C33.5649 10.9364 33.7487 10.9432 33.9801 10.9432C34.2115 10.9296 34.4496 10.916 34.6946 10.9024C34.9533 10.8887 35.1982 10.8887 35.4296 10.9024C35.661 10.9024 35.8516 10.9228 36.0013 10.9636C35.9741 11.3175 35.9468 11.6646 35.9196 12.0048C35.8924 12.3451 35.8584 12.665 35.8175 12.9644C35.7767 13.2502 35.7223 13.502 35.6542 13.7198C35.5998 13.924 35.5249 14.0669 35.4296 14.1486C35.1982 14.4752 34.8988 14.7066 34.5313 14.8427C34.1638 14.9788 33.7623 15.0605 33.3267 15.0877C32.8912 15.1149 32.442 15.1149 31.9793 15.0877C31.5301 15.0605 31.115 15.0469 30.7339 15.0469C30.3528 14.9924 29.9989 14.8699 29.6722 14.6794C29.3047 14.4208 28.9985 14.0873 28.7535 13.679C28.5085 13.257 28.3111 12.8011 28.1614 12.3111C28.0117 11.8075 27.9096 11.2767 27.8551 10.7186C27.8007 10.1606 27.7871 9.60251 27.8143 9.04446C27.8551 8.54086 27.896 8.05767 27.9368 7.5949C27.9913 7.11852 28.1001 6.65574 28.2635 6.20658C28.4404 5.81187 28.7126 5.4784 29.0801 5.20618C29.4476 4.92035 29.8628 4.70938 30.3255 4.57327C30.7883 4.42355 31.2783 4.34189 31.7955 4.32827C32.3127 4.31466 32.8163 4.36911 33.3063 4.49161C33.9324 4.60049 34.436 4.81827 34.8171 5.14493C35.1982 5.47159 35.4841 5.86631 35.6746 6.32908C35.8788 6.79185 36.0013 7.30226 36.0421 7.86031C36.083 8.41836 36.083 8.98321 36.0421 9.55487C35.9468 9.58209 35.7631 9.60932 35.4909 9.63654C35.2323 9.66376 34.9192 9.69098 34.5517 9.7182C34.1978 9.74543 33.8167 9.76584 33.4084 9.77945C33.0001 9.79306 32.6054 9.79987 32.2243 9.79987C31.8568 9.79987 31.5233 9.79306 31.2239 9.77945ZM33.6126 7.10491C33.4765 6.85991 33.2859 6.67616 33.0409 6.55366C32.932 6.48561 32.8231 6.43797 32.7143 6.41075C32.6054 6.36992 32.4761 6.3495 32.3263 6.3495C31.9997 6.3495 31.7343 6.38353 31.5301 6.45158C31.3259 6.51964 31.1626 6.61491 31.0401 6.73741C30.9176 6.85991 30.8223 7.00282 30.7543 7.16615C30.6998 7.32949 30.659 7.49962 30.6318 7.67656C30.6046 7.82628 30.5909 7.93517 30.5909 8.00323C30.6046 8.05767 30.6726 8.0985 30.7951 8.12573C30.9176 8.13934 31.1082 8.14614 31.3668 8.14614C31.639 8.13253 32.0337 8.12573 32.5509 8.12573C32.9048 8.12573 33.1702 8.13253 33.3472 8.14614C33.5241 8.15975 33.6466 8.16656 33.7147 8.16656C33.7963 8.15295 33.8372 8.13253 33.8372 8.10531C33.8372 8.06448 33.8372 7.98962 33.8372 7.88073C33.8372 7.60851 33.7623 7.3499 33.6126 7.10491Z" fill="white"/>
<path d="M26.3774 10.8615C26.6087 10.8615 26.7993 10.8819 26.949 10.9228C26.9218 11.2767 26.8946 11.6237 26.8673 11.964C26.8401 12.3043 26.8061 12.6241 26.7653 12.9236C26.7244 13.2094 26.67 13.4612 26.6019 13.679C26.5475 13.8832 26.4726 14.0329 26.3774 14.1281C26.146 14.4548 25.8397 14.6862 25.4586 14.8223C25.0911 14.9584 24.6896 15.0401 24.254 15.0673C23.8185 15.1081 23.3693 15.1081 22.9066 15.0673C22.4438 15.0401 22.0219 15.0265 21.6407 15.0265C20.9466 14.904 20.3613 14.6045 19.8849 14.1281C19.5174 13.8015 19.2656 13.3932 19.1295 12.9032C18.9934 12.4132 18.9118 11.9028 18.8845 11.3719C18.8573 10.8275 18.8505 10.2831 18.8641 9.73862C18.8913 9.19419 18.8777 8.69739 18.8233 8.24823C18.8233 7.75823 18.8641 7.26824 18.9458 6.77825C18.9594 6.62852 19.007 6.42436 19.0887 6.16575C19.1704 5.90715 19.2316 5.70979 19.2724 5.57368C19.3677 5.36951 19.5174 5.19257 19.7216 5.04285C19.9394 4.89313 20.1844 4.77063 20.4566 4.67536C20.7424 4.56647 21.0419 4.49161 21.3549 4.45078C21.6816 4.40994 22.0082 4.38953 22.3349 4.38953C22.6071 4.41675 22.8657 4.42355 23.1107 4.40994C23.3693 4.38272 23.6416 4.38272 23.9274 4.40994C24.3629 4.43717 24.7781 4.51883 25.1728 4.65494C25.5675 4.79105 25.9078 4.99521 26.1936 5.26743C26.3842 5.40354 26.5271 5.58729 26.6223 5.81867C26.7312 6.05006 26.8129 6.32228 26.8673 6.63533C26.9218 6.94838 26.949 7.30227 26.949 7.69698C26.9626 8.07809 26.9762 8.49322 26.9898 8.94238C26.8129 8.98322 26.6087 9.00363 26.3774 9.00363C26.1596 9.00363 25.9282 8.99683 25.6832 8.98322C25.4518 8.96961 25.2204 8.94919 24.989 8.92197C24.7713 8.89474 24.5739 8.86752 24.397 8.8403C24.3289 8.36392 24.1315 7.99642 23.8049 7.73782C23.4782 7.4656 23.0495 7.39754 22.5187 7.53365C22.2328 7.61532 22.0014 7.76504 21.8245 7.98281C21.7428 8.03726 21.6816 8.17337 21.6407 8.39114C21.5863 8.81308 21.5591 9.24182 21.5591 9.67737C21.5591 10.1129 21.5455 10.5689 21.5182 11.0453C21.491 11.3583 21.5659 11.6033 21.7428 11.7803C21.9334 11.9572 22.158 12.0797 22.4166 12.1478C22.6752 12.2022 22.9406 12.2158 23.2128 12.1886C23.485 12.1478 23.7028 12.0729 23.8661 11.964C24.0022 11.8687 24.1043 11.7122 24.1724 11.4944C24.254 11.263 24.3153 11.0589 24.3561 10.8819C24.4922 10.8956 24.676 10.9024 24.9074 10.9024C25.1388 10.8887 25.3838 10.8751 25.6424 10.8615C25.901 10.8479 26.146 10.8479 26.3774 10.8615Z" fill="white"/>
<path d="M17.3455 10.8615C17.5769 10.8615 17.7674 10.8819 17.9171 10.9228C17.8899 11.2767 17.8627 11.6237 17.8355 11.964C17.8083 12.3043 17.7742 12.6241 17.7334 12.9236C17.6926 13.2094 17.6381 13.4612 17.5701 13.679C17.5156 13.8832 17.4408 14.0329 17.3455 14.1281C17.1141 14.4548 16.8079 14.6862 16.4268 14.8223C16.0593 14.9584 15.6577 15.0401 15.2222 15.0673C14.7866 15.1081 14.3375 15.1081 13.8747 15.0673C13.4119 15.0401 12.99 15.0265 12.6089 15.0265C11.9147 14.904 11.3295 14.6045 10.8531 14.1281C10.4856 13.8015 10.2338 13.3932 10.0977 12.9032C9.96156 12.4132 9.87989 11.9028 9.85267 11.3719C9.82545 10.8275 9.81864 10.2831 9.83225 9.73862C9.85947 9.19419 9.84586 8.69739 9.79142 8.24823C9.79142 7.75823 9.83225 7.26824 9.91392 6.77825C9.92753 6.62852 9.97517 6.42436 10.0568 6.16575C10.1385 5.90715 10.1997 5.70979 10.2406 5.57368C10.3359 5.36951 10.4856 5.19257 10.6897 5.04285C10.9075 4.89313 11.1525 4.77063 11.4247 4.67536C11.7106 4.56647 12.01 4.49161 12.3231 4.45078C12.6497 4.40994 12.9764 4.38953 13.303 4.38953C13.5753 4.41675 13.8339 4.42355 14.0789 4.40994C14.3375 4.38272 14.6097 4.38272 14.8955 4.40994C15.3311 4.43717 15.7462 4.51883 16.1409 4.65494C16.5356 4.79105 16.8759 4.99521 17.1617 5.26743C17.3523 5.40354 17.4952 5.58729 17.5905 5.81867C17.6994 6.05006 17.781 6.32228 17.8355 6.63533C17.8899 6.94838 17.9171 7.30227 17.9171 7.69698C17.9308 8.07809 17.9444 8.49322 17.958 8.94238C17.781 8.98322 17.5769 9.00363 17.3455 9.00363C17.1277 9.00363 16.8963 8.99683 16.6513 8.98322C16.4199 8.96961 16.1886 8.94919 15.9572 8.92197C15.7394 8.89474 15.542 8.86752 15.3651 8.8403C15.297 8.36392 15.0997 7.99642 14.773 7.73782C14.4464 7.4656 14.0176 7.39754 13.4868 7.53365C13.201 7.61532 12.9696 7.76504 12.7926 7.98281C12.711 8.03726 12.6497 8.17337 12.6089 8.39114C12.5544 8.81308 12.5272 9.24182 12.5272 9.67737C12.5272 10.1129 12.5136 10.5689 12.4864 11.0453C12.4592 11.3583 12.534 11.6033 12.711 11.7803C12.9015 11.9572 13.1261 12.0797 13.3847 12.1478C13.6433 12.2022 13.9087 12.2158 14.1809 12.1886C14.4532 12.1478 14.6709 12.0729 14.8343 11.964C14.9704 11.8687 15.0725 11.7122 15.1405 11.4944C15.2222 11.263 15.2834 11.0589 15.3243 10.8819C15.4604 10.8956 15.6441 10.9024 15.8755 10.9024C16.1069 10.8887 16.3519 10.8751 16.6105 10.8615C16.8691 10.8479 17.1141 10.8479 17.3455 10.8615Z" fill="white"/>
<path d="M7.41115 4.61409C7.75143 4.6277 8.13934 4.64812 8.57489 4.67534C8.5885 4.75701 8.5953 4.83867 8.5953 4.92034C8.60891 5.002 8.61572 5.08367 8.61572 5.16533V5.3695C8.57489 6.83948 8.58169 8.28904 8.63614 9.71819C8.69058 11.1337 8.67016 12.5697 8.57489 14.0261C8.57489 14.203 8.56808 14.3799 8.55447 14.5569C8.55447 14.7338 8.47281 14.8359 8.30947 14.8631H8.06448C7.8467 14.8631 7.62212 14.8563 7.39074 14.8427C7.17296 14.8155 6.95519 14.8019 6.73741 14.8019C6.58769 14.8019 6.43797 14.8155 6.28825 14.8427C6.15214 14.8563 6.00923 14.8631 5.85951 14.8631C5.76423 14.8359 5.69618 14.7815 5.65534 14.6998C5.62812 14.6181 5.61451 14.5229 5.61451 14.414C5.61451 14.2642 5.62812 14.1417 5.65534 14.0465C5.68256 13.9512 5.69618 13.8355 5.69618 13.6994C5.36951 14.0261 4.95438 14.3051 4.45078 14.5365C3.96078 14.7678 3.47759 14.8835 3.00121 14.8835C2.47038 14.8835 2.01442 14.6998 1.63331 14.3323C1.26582 13.9648 0.959571 13.5088 0.714574 12.9644C0.469577 12.42 0.28583 11.8279 0.163331 11.1882C0.0544437 10.5485 0 9.95638 0 9.41194C0 8.7314 0.088471 8.10529 0.265413 7.53364C0.442355 6.96198 0.680547 6.47198 0.979987 6.06365C1.29304 5.64172 1.66053 5.31505 2.08247 5.08367C2.50441 4.83867 2.95357 4.70937 3.42995 4.69576C3.67495 4.69576 3.89953 4.70256 4.1037 4.71617C4.32147 4.71617 4.51883 4.7502 4.69577 4.81825C4.87271 4.8727 5.02924 4.96797 5.16535 5.10408C5.30146 5.22658 5.41715 5.40352 5.51243 5.63491C5.49882 5.41714 5.50562 5.23339 5.53284 5.08367C5.57368 4.92034 5.59409 4.75701 5.59409 4.59367C5.59409 4.58006 5.63493 4.57326 5.71659 4.57326C5.81187 4.55965 5.91395 4.55965 6.02284 4.57326C6.13173 4.57326 6.24061 4.57326 6.3495 4.57326C6.45839 4.57326 6.53325 4.57326 6.57408 4.57326C6.80547 4.58687 7.08449 4.60048 7.41115 4.61409ZM3.20537 7.83988C2.89232 8.09849 2.70177 8.39793 2.63372 8.7382C2.57927 8.91514 2.54524 9.09889 2.53163 9.28945C2.51802 9.46639 2.51122 9.64333 2.51122 9.82027C2.51122 10.4328 2.66774 10.9568 2.98079 11.3923C3.30746 11.8143 3.75662 12.0252 4.32828 12.0252C4.66855 12.0252 4.92035 11.9708 5.08368 11.8619C5.26063 11.7394 5.38312 11.5761 5.45118 11.3719C5.53284 11.1541 5.57368 10.8955 5.57368 10.5961C5.58729 10.283 5.59409 9.93597 5.59409 9.55486C5.59409 9.07848 5.58729 8.70418 5.57368 8.43196C5.57368 8.14613 5.53965 7.92835 5.47159 7.77863C5.41715 7.62891 5.31507 7.53364 5.16535 7.4928C5.02924 7.45197 4.81827 7.43155 4.53244 7.43155C3.97439 7.43155 3.53204 7.56766 3.20537 7.83988Z" fill="white"/>
</svg>
