<svg width="57" height="119" viewBox="0 0 57 119" fill="none" xmlns="http://www.w3.org/2000/svg">
<path d="M0.615741 2.57778C0.296643 1.81327 0.657717 0.934839 1.42222 0.615741C2.18673 0.296643 3.06516 0.657717 3.38426 1.42222L0.615741 2.57778ZM51.3874 117.57C51.0724 118.336 50.196 118.702 49.4297 118.387L36.9434 113.255C36.1772 112.94 35.8114 112.064 36.1263 111.297C36.4413 110.531 37.3177 110.165 38.0839 110.48L49.1829 115.042L53.745 103.943C54.06 103.177 54.9365 102.811 55.7027 103.126C56.4689 103.441 56.8347 104.318 56.5198 105.084L51.3874 117.57ZM3.38426 1.42222L51.3843 116.422L48.6157 117.578L0.615741 2.57778L3.38426 1.42222Z" fill="#FEC2DE"/>
</svg>
