<svg width="133" height="73" viewBox="0 0 133 73" fill="none" xmlns="http://www.w3.org/2000/svg">
<path fill-rule="evenodd" clip-rule="evenodd" d="M37.2438 13.6633C32.5921 12.1346 24.2687 4.25009 19.7267 2.42158C13.1075 -0.233417 11.6447 10.0062 17.4959 23.1715C7.25627 19.5145 -7.37181 24.6343 10.1819 38.531C2.13644 37.7996 -1.52058 50.2335 22.2866 51.9011" fill="#FEC2DE"/>
<path d="M37.2438 13.6633C32.5921 12.1346 24.2687 4.25009 19.7267 2.42158C13.1075 -0.233417 11.6447 10.0062 17.4959 23.1715C7.25627 19.5145 -7.37181 24.6343 10.1819 38.531C2.13644 37.7996 -1.52058 50.2335 22.2866 51.9011" stroke="#C0216B" stroke-width="3" stroke-linecap="round" stroke-linejoin="round"/>
<path fill-rule="evenodd" clip-rule="evenodd" d="M20.5239 44.6455C18.22 45.6183 15.9161 45.6183 13.6049 44.6455H20.5239Z" fill="#FEC2DE"/>
<path d="M20.5239 44.6455C18.22 45.6183 15.9161 45.6183 13.6049 44.6455" stroke="#C0216B" stroke-width="3" stroke-linecap="round" stroke-linejoin="round"/>
<path fill-rule="evenodd" clip-rule="evenodd" d="M21.8697 33.0455C19.4195 33.4916 16.9693 33.1186 14.5703 31.2169L21.8697 33.0455Z" fill="#FEC2DE"/>
<path d="M21.8697 33.0455C19.4195 33.4916 16.9693 33.1186 14.5703 31.2169" stroke="#C0216B" stroke-width="3" stroke-linecap="round" stroke-linejoin="round"/>
<path fill-rule="evenodd" clip-rule="evenodd" d="M29.7835 20.0923C26.8871 18.6807 24.9855 17.2691 24.0712 15.8648L29.7835 20.0923Z" fill="#FEC2DE"/>
<path d="M29.7835 20.0923C26.8871 18.6807 24.9855 17.2691 24.0712 15.8648" stroke="#C0216B" stroke-width="3" stroke-linecap="round" stroke-linejoin="round"/>
<path fill-rule="evenodd" clip-rule="evenodd" d="M95.7562 13.6633C100.408 12.1346 108.731 4.25009 113.273 2.42158C119.892 -0.233417 121.355 10.0062 115.504 23.1715C125.744 19.5145 140.372 24.6343 122.818 38.531C130.864 37.7996 134.521 50.2335 110.713 51.9011" fill="#FEC2DE"/>
<path d="M95.7562 13.6633C100.408 12.1346 108.731 4.25009 113.273 2.42158C119.892 -0.233417 121.355 10.0062 115.504 23.1715C125.744 19.5145 140.372 24.6343 122.818 38.531C130.864 37.7996 134.521 50.2335 110.713 51.9011" stroke="#C0216B" stroke-width="3" stroke-linecap="round" stroke-linejoin="round"/>
<path fill-rule="evenodd" clip-rule="evenodd" d="M112.469 44.6455C114.773 45.6183 117.077 45.6183 119.388 44.6455H112.469Z" fill="#FEC2DE"/>
<path d="M112.469 44.6455C114.773 45.6183 117.077 45.6183 119.388 44.6455" stroke="#C0216B" stroke-width="3" stroke-linecap="round" stroke-linejoin="round"/>
<path fill-rule="evenodd" clip-rule="evenodd" d="M111.123 33.0455C113.573 33.4916 116.023 33.1186 118.422 31.2169L111.123 33.0455Z" fill="#FEC2DE"/>
<path d="M111.123 33.0455C113.573 33.4916 116.023 33.1186 118.422 31.2169" stroke="#C0216B" stroke-width="3" stroke-linecap="round" stroke-linejoin="round"/>
<path fill-rule="evenodd" clip-rule="evenodd" d="M103.209 20.0923C106.106 18.6807 108.007 17.2691 108.921 15.8648L103.209 20.0923Z" fill="#FEC2DE"/>
<path d="M103.209 20.0923C106.106 18.6807 108.007 17.2691 108.921 15.8648" stroke="#C0216B" stroke-width="3" stroke-linecap="round" stroke-linejoin="round"/>
<path fill-rule="evenodd" clip-rule="evenodd" d="M112.578 42.188C112.578 62.3821 91.9455 71.4442 66.5 71.4442C41.0545 71.4442 20.4215 62.3821 20.4215 42.188C20.4215 21.994 41.0471 5.61783 66.5 5.61783C91.9529 5.61783 112.578 21.994 112.578 42.188Z" fill="#FEC2DE" stroke="#C0216B" stroke-width="3" stroke-linecap="round" stroke-linejoin="round"/>
<path d="M72.7169 49.1364C72.7169 49.1364 66.5 55.3533 59.5517 49.1364" stroke="black" stroke-width="3" stroke-miterlimit="10" stroke-linecap="round"/>
<path d="M44.9236 41.0909C47.3473 41.0909 49.312 39.1262 49.312 36.7025C49.312 34.2789 47.3473 32.3141 44.9236 32.3141C42.4999 32.3141 40.5352 34.2789 40.5352 36.7025C40.5352 39.1262 42.4999 41.0909 44.9236 41.0909Z" fill="black"/>
<path d="M45.655 35.9711C46.4629 35.9711 47.1178 35.3162 47.1178 34.5083C47.1178 33.7004 46.4629 33.0455 45.655 33.0455C44.8471 33.0455 44.1922 33.7004 44.1922 34.5083C44.1922 35.3162 44.8471 35.9711 45.655 35.9711Z" fill="white"/>
<path d="M88.0764 41.0909C90.5001 41.0909 92.4649 39.1262 92.4649 36.7025C92.4649 34.2789 90.5001 32.3141 88.0764 32.3141C85.6528 32.3141 83.688 34.2789 83.688 36.7025C83.688 39.1262 85.6528 41.0909 88.0764 41.0909Z" fill="black"/>
<path d="M87.345 35.9711C88.1529 35.9711 88.8078 35.3162 88.8078 34.5083C88.8078 33.7004 88.1529 33.0455 87.345 33.0455C86.5372 33.0455 85.8822 33.7004 85.8822 34.5083C85.8822 35.3162 86.5372 35.9711 87.345 35.9711Z" fill="white"/>
<path d="M44.9236 45.1136C49.5689 45.1136 53.3347 41.3478 53.3347 36.7025C53.3347 32.0572 49.5689 28.2914 44.9236 28.2914C40.2782 28.2914 36.5124 32.0572 36.5124 36.7025C36.5124 41.3478 40.2782 45.1136 44.9236 45.1136Z" stroke="black" stroke-width="3" stroke-linecap="round" stroke-linejoin="round"/>
<path d="M36.5124 36.3368L23.3472 31.9484" stroke="black" stroke-width="3" stroke-linecap="round" stroke-linejoin="round"/>
<path d="M53.3347 38.531C62.1116 37.0682 70.8884 37.0682 79.6653 38.531" stroke="black" stroke-width="3" stroke-linecap="round" stroke-linejoin="round"/>
<path d="M88.0764 45.1136C92.7218 45.1136 96.4876 41.3478 96.4876 36.7025C96.4876 32.0572 92.7218 28.2914 88.0764 28.2914C83.4311 28.2914 79.6653 32.0572 79.6653 36.7025C79.6653 41.3478 83.4311 45.1136 88.0764 45.1136Z" stroke="black" stroke-width="3" stroke-linecap="round" stroke-linejoin="round"/>
<path d="M96.4876 36.3368L109.653 31.9484" stroke="black" stroke-width="3" stroke-linecap="round" stroke-linejoin="round"/>
</svg>
