<svg width="75" height="16" viewBox="0 0 75 16" fill="none" xmlns="http://www.w3.org/2000/svg">
<path d="M6.96 0.76C8.25333 0.76 9.38 1.01333 10.34 1.52C11.3 2.02667 12.0467 2.77333 12.58 3.76C13.1133 4.74667 13.38 5.94 13.38 7.34V15H10.14V11.64H3.74V15H0.54V7.34C0.54 5.94 0.806667 4.74667 1.34 3.76C1.87333 2.77333 2.62 2.02667 3.58 1.52C4.54 1.01333 5.66667 0.76 6.96 0.76ZM10.14 9.04V7.04C10.14 5.88 9.85333 5.00667 9.28 4.42C8.70667 3.82 7.92667 3.52 6.94 3.52C5.94 3.52 5.15333 3.82 4.58 4.42C4.02 5.00667 3.74 5.88 3.74 7.04V9.04H10.14ZM23.198 15L20.838 11.7L18.398 15H14.998L19.138 9.58L15.138 4.24H18.638L20.918 7.38L23.258 4.24H26.578L22.578 9.5L26.738 15H23.198ZM33.0405 15.16C31.9071 15.16 30.8871 14.9267 29.9805 14.46C29.0871 13.98 28.3871 13.32 27.8805 12.48C27.3738 11.64 27.1205 10.6867 27.1205 9.62C27.1205 8.55333 27.3738 7.6 27.8805 6.76C28.3871 5.92 29.0871 5.26667 29.9805 4.8C30.8871 4.32 31.9071 4.08 33.0405 4.08C34.1738 4.08 35.1871 4.32 36.0805 4.8C36.9738 5.26667 37.6738 5.92 38.1805 6.76C38.6871 7.6 38.9405 8.55333 38.9405 9.62C38.9405 10.6867 38.6871 11.64 38.1805 12.48C37.6738 13.32 36.9738 13.98 36.0805 14.46C35.1871 14.9267 34.1738 15.16 33.0405 15.16ZM33.0405 12.6C33.8405 12.6 34.4938 12.3333 35.0005 11.8C35.5205 11.2533 35.7805 10.5267 35.7805 9.62C35.7805 8.71333 35.5205 7.99333 35.0005 7.46C34.4938 6.91333 33.8405 6.64 33.0405 6.64C32.2405 6.64 31.5805 6.91333 31.0605 7.46C30.5405 7.99333 30.2805 8.71333 30.2805 9.62C30.2805 10.5267 30.5405 11.2533 31.0605 11.8C31.5805 12.3333 32.2405 12.6 33.0405 12.6Z" fill="#F5F5F5"/>
<path d="M44.8859 15.16C43.6726 15.16 42.7259 14.84 42.0459 14.2C41.3659 13.5467 41.0259 12.6267 41.0259 11.44V0.159999H44.1459V11.26C44.1459 11.7133 44.2593 12.0667 44.4859 12.32C44.7259 12.56 45.0593 12.68 45.4859 12.68C45.6459 12.68 45.8059 12.66 45.9659 12.62C46.1393 12.58 46.2726 12.5333 46.3659 12.48L46.5059 14.9C45.9859 15.0733 45.4459 15.16 44.8859 15.16ZM52.9623 15.16C51.829 15.16 50.809 14.9267 49.9023 14.46C49.009 13.98 48.309 13.32 47.8023 12.48C47.2957 11.64 47.0423 10.6867 47.0423 9.62C47.0423 8.55333 47.2957 7.6 47.8023 6.76C48.309 5.92 49.009 5.26667 49.9023 4.8C50.809 4.32 51.829 4.08 52.9623 4.08C54.0957 4.08 55.109 4.32 56.0023 4.8C56.8957 5.26667 57.5957 5.92 58.1023 6.76C58.609 7.6 58.8623 8.55333 58.8623 9.62C58.8623 10.6867 58.609 11.64 58.1023 12.48C57.5957 13.32 56.8957 13.98 56.0023 14.46C55.109 14.9267 54.0957 15.16 52.9623 15.16ZM52.9623 12.6C53.7623 12.6 54.4157 12.3333 54.9223 11.8C55.4423 11.2533 55.7023 10.5267 55.7023 9.62C55.7023 8.71333 55.4423 7.99333 54.9223 7.46C54.4157 6.91333 53.7623 6.64 52.9623 6.64C52.1623 6.64 51.5023 6.91333 50.9823 7.46C50.4623 7.99333 50.2023 8.71333 50.2023 9.62C50.2023 10.5267 50.4623 11.2533 50.9823 11.8C51.5023 12.3333 52.1623 12.6 52.9623 12.6ZM67.4278 14.48C67.1211 14.7067 66.7411 14.88 66.2878 15C65.8478 15.1067 65.3878 15.16 64.9078 15.16C63.6145 15.16 62.6211 14.8333 61.9278 14.18C61.2345 13.5267 60.8878 12.5667 60.8878 11.3V1.86H64.0078V4.48H66.6678V6.88H64.0078V11.26C64.0078 11.7133 64.1211 12.0667 64.3478 12.32C64.5745 12.56 64.9011 12.68 65.3278 12.68C65.8078 12.68 66.2345 12.5467 66.6078 12.28L67.4278 14.48ZM73.05 15.16C71.8367 15.16 70.89 14.84 70.21 14.2C69.53 13.5467 69.19 12.6267 69.19 11.44V0.159999H72.31V11.26C72.31 11.7133 72.4233 12.0667 72.65 12.32C72.89 12.56 73.2233 12.68 73.65 12.68C73.81 12.68 73.97 12.66 74.13 12.62C74.3033 12.58 74.4367 12.5333 74.53 12.48L74.67 14.9C74.15 15.0733 73.61 15.16 73.05 15.16Z" fill="#FEC2DE"/>
</svg>
