<svg width="327" height="272" viewBox="0 0 327 272" fill="none" xmlns="http://www.w3.org/2000/svg">
<g clip-path="url(#clip0_217_1392)">
<rect width="327" height="272" fill="white"/>
<path fill-rule="evenodd" clip-rule="evenodd" d="M28.7561 40.6633C33.4078 39.1346 41.7312 31.2501 46.2732 29.4216C52.8924 26.7666 54.3552 37.0062 48.504 50.1715C58.7437 46.5145 73.3718 51.6343 55.8181 65.531C63.8635 64.7996 67.5205 77.2335 43.7133 78.9011" fill="#FEC2DE"/>
<path d="M28.7561 40.6633C33.4078 39.1346 41.7312 31.2501 46.2732 29.4216C52.8924 26.7666 54.3552 37.0062 48.504 50.1715C58.7437 46.5145 73.3718 51.6343 55.8181 65.531C63.8635 64.7996 67.5205 77.2335 43.7133 78.9011" stroke="#C0216B" stroke-width="3" stroke-linecap="round" stroke-linejoin="round"/>
<path fill-rule="evenodd" clip-rule="evenodd" d="M45.4688 71.6455C47.7727 72.6183 50.0766 72.6183 52.3878 71.6455Z" fill="#FEC2DE"/>
<path d="M45.4688 71.6455C47.7727 72.6183 50.0766 72.6183 52.3878 71.6455" stroke="#C0216B" stroke-width="3" stroke-linecap="round" stroke-linejoin="round"/>
<path fill-rule="evenodd" clip-rule="evenodd" d="M44.123 60.0453C46.5733 60.4915 49.0235 60.1184 51.4225 58.2168Z" fill="#FEC2DE"/>
<path d="M44.123 60.0453C46.5733 60.4915 49.0235 60.1184 51.4225 58.2168" stroke="#C0216B" stroke-width="3" stroke-linecap="round" stroke-linejoin="round"/>
<path fill-rule="evenodd" clip-rule="evenodd" d="M36.2092 47.0923C39.1056 45.6807 41.0072 44.269 41.9215 42.8647Z" fill="#FEC2DE"/>
<path d="M36.2092 47.0923C39.1056 45.6807 41.0072 44.269 41.9215 42.8647" stroke="#C0216B" stroke-width="3" stroke-linecap="round" stroke-linejoin="round"/>
<path fill-rule="evenodd" clip-rule="evenodd" d="M45.5784 69.1879C45.5784 89.382 24.9455 98.444 -0.500035 98.444C-25.9456 98.444 -46.5785 89.382 -46.5785 69.1879C-46.5785 48.9938 -25.9529 32.6177 -0.500035 32.6177C24.9528 32.6177 45.5784 48.9938 45.5784 69.1879Z" fill="#FEC2DE" stroke="#C0216B" stroke-width="3" stroke-linecap="round" stroke-linejoin="round"/>
<path d="M5.71691 76.1362C5.71691 76.1362 -0.500026 82.3532 -7.44836 76.1362" stroke="black" stroke-width="3" stroke-miterlimit="10" stroke-linecap="round"/>
<path d="M21.0764 68.0908C23.5001 68.0908 25.4648 66.126 25.4648 63.7024C25.4648 61.2787 23.5001 59.314 21.0764 59.314C18.6528 59.314 16.688 61.2787 16.688 63.7024C16.688 66.126 18.6528 68.0908 21.0764 68.0908Z" fill="black"/>
<path d="M20.345 62.971C21.1529 62.971 21.8078 62.3161 21.8078 61.5082C21.8078 60.7003 21.1529 60.0454 20.345 60.0454C19.5371 60.0454 18.8822 60.7003 18.8822 61.5082C18.8822 62.3161 19.5371 62.971 20.345 62.971Z" fill="white"/>
<path d="M-13.6653 65.5307C-4.88843 64.0679 3.88841 64.0679 12.6653 65.5307" stroke="black" stroke-width="3" stroke-linecap="round" stroke-linejoin="round"/>
<path d="M21.0764 72.1133C25.7218 72.1133 29.4876 68.3475 29.4876 63.7022C29.4876 59.0568 25.7218 55.291 21.0764 55.291C16.4311 55.291 12.6653 59.0568 12.6653 63.7022C12.6653 68.3475 16.4311 72.1133 21.0764 72.1133Z" stroke="black" stroke-width="3" stroke-linecap="round" stroke-linejoin="round"/>
<path d="M29.4875 63.3367L42.6528 58.9482" stroke="black" stroke-width="3" stroke-linecap="round" stroke-linejoin="round"/>
<path fill-rule="evenodd" clip-rule="evenodd" d="M9.68684 156.405C5.90055 155.173 -0.874292 148.814 -4.57128 147.34C-9.95901 145.199 -11.1497 153.456 -6.38704 164.073C-14.7216 161.124 -26.6282 165.252 -12.3403 176.459C-18.8889 175.869 -21.8656 185.896 -2.48763 187.24" fill="#FEC2DE"/>
<path d="M9.68684 156.405C5.90055 155.173 -0.874292 148.814 -4.57128 147.34C-9.95901 145.199 -11.1497 153.456 -6.38704 164.073C-14.7216 161.124 -26.6282 165.252 -12.3403 176.459C-18.8889 175.869 -21.8656 185.896 -2.48763 187.24" stroke="#C0216B" stroke-width="3" stroke-linecap="round" stroke-linejoin="round"/>
<path fill-rule="evenodd" clip-rule="evenodd" d="M3.61449 161.59C1.25698 160.451 -0.290873 159.313 -1.03503 158.181Z" fill="#FEC2DE"/>
<path d="M3.61449 161.59C1.25698 160.451 -0.290873 159.313 -1.03503 158.181" stroke="#C0216B" stroke-width="3" stroke-linecap="round" stroke-linejoin="round"/>
<path fill-rule="evenodd" clip-rule="evenodd" d="M57.3132 156.405C61.0995 155.173 67.8744 148.814 71.5714 147.34C76.9591 145.199 78.1497 153.456 73.3871 164.073C81.7217 161.124 93.6283 165.252 79.3404 176.459C85.889 175.869 88.8657 185.896 69.4877 187.24" fill="#FEC2DE"/>
<path d="M57.3132 156.405C61.0995 155.173 67.8744 148.814 71.5714 147.34C76.9591 145.199 78.1497 153.456 73.3871 164.073C81.7217 161.124 93.6283 165.252 79.3404 176.459C85.889 175.869 88.8657 185.896 69.4877 187.24" stroke="#C0216B" stroke-width="3" stroke-linecap="round" stroke-linejoin="round"/>
<path fill-rule="evenodd" clip-rule="evenodd" d="M70.9165 181.39C72.7918 182.174 74.6671 182.174 76.5483 181.39Z" fill="#FEC2DE"/>
<path d="M70.9165 181.39C72.7918 182.174 74.6671 182.174 76.5483 181.39" stroke="#C0216B" stroke-width="3" stroke-linecap="round" stroke-linejoin="round"/>
<path fill-rule="evenodd" clip-rule="evenodd" d="M69.821 172.035C71.8154 172.395 73.8097 172.094 75.7624 170.561Z" fill="#FEC2DE"/>
<path d="M69.821 172.035C71.8154 172.395 73.8097 172.094 75.7624 170.561" stroke="#C0216B" stroke-width="3" stroke-linecap="round" stroke-linejoin="round"/>
<path fill-rule="evenodd" clip-rule="evenodd" d="M63.3796 161.59C65.7371 160.451 67.285 159.313 68.0292 158.181Z" fill="#FEC2DE"/>
<path d="M63.3796 161.59C65.7371 160.451 67.285 159.313 68.0292 158.181" stroke="#C0216B" stroke-width="3" stroke-linecap="round" stroke-linejoin="round"/>
<path fill-rule="evenodd" clip-rule="evenodd" d="M71.0057 179.408C71.0057 195.692 54.2115 203 33.5 203C12.7885 203 -4.00574 195.692 -4.00574 179.408C-4.00574 163.123 12.7825 149.917 33.5 149.917C54.2174 149.917 71.0057 163.123 71.0057 179.408Z" fill="#FEC2DE" stroke="#C0216B" stroke-width="3" stroke-linecap="round" stroke-linejoin="round"/>
<path d="M38.5604 185.011C38.5604 185.011 33.5001 190.024 27.8445 185.011" stroke="black" stroke-width="3" stroke-miterlimit="10" stroke-linecap="round"/>
<path d="M15.9378 178.523C17.9106 178.523 19.5098 176.939 19.5098 174.984C19.5098 173.03 17.9106 171.445 15.9378 171.445C13.9651 171.445 12.3658 173.03 12.3658 174.984C12.3658 176.939 13.9651 178.523 15.9378 178.523Z" fill="black"/>
<path d="M16.5332 174.394C17.1908 174.394 17.7238 173.866 17.7238 173.215C17.7238 172.563 17.1908 172.035 16.5332 172.035C15.8756 172.035 15.3425 172.563 15.3425 173.215C15.3425 173.866 15.8756 174.394 16.5332 174.394Z" fill="white"/>
<path d="M51.0622 178.523C53.035 178.523 54.6342 176.939 54.6342 174.984C54.6342 173.03 53.035 171.445 51.0622 171.445C49.0895 171.445 47.4902 173.03 47.4902 174.984C47.4902 176.939 49.0895 178.523 51.0622 178.523Z" fill="black"/>
<path d="M50.4668 174.394C51.1244 174.394 51.6574 173.866 51.6574 173.215C51.6574 172.563 51.1244 172.035 50.4668 172.035C49.8092 172.035 49.2761 172.563 49.2761 173.215C49.2761 173.866 49.8092 174.394 50.4668 174.394Z" fill="white"/>
<path d="M15.9378 181.767C19.7189 181.767 22.7841 178.73 22.7841 174.984C22.7841 171.238 19.7189 168.202 15.9378 168.202C12.1567 168.202 9.09155 171.238 9.09155 174.984C9.09155 178.73 12.1567 181.767 15.9378 181.767Z" stroke="black" stroke-width="3" stroke-linecap="round" stroke-linejoin="round"/>
<path d="M9.09153 174.69L-1.62439 171.151" stroke="black" stroke-width="3" stroke-linecap="round" stroke-linejoin="round"/>
<path d="M22.7842 176.459C29.9281 175.279 37.0721 175.279 44.216 176.459" stroke="black" stroke-width="3" stroke-linecap="round" stroke-linejoin="round"/>
<path d="M51.0621 181.767C54.8432 181.767 57.9084 178.73 57.9084 174.984C57.9084 171.238 54.8432 168.202 51.0621 168.202C47.281 168.202 44.2158 171.238 44.2158 174.984C44.2158 178.73 47.281 181.767 51.0621 181.767Z" stroke="black" stroke-width="3" stroke-linecap="round" stroke-linejoin="round"/>
<path d="M57.9084 174.69L68.6244 171.151" stroke="black" stroke-width="3" stroke-linecap="round" stroke-linejoin="round"/>
<path fill-rule="evenodd" clip-rule="evenodd" d="M297.244 40.6633C292.592 39.1346 284.269 31.2501 279.727 29.4216C273.108 26.7666 271.645 37.0062 277.496 50.1715C267.256 46.5145 252.628 51.6343 270.182 65.531C262.136 64.7996 258.479 77.2335 282.287 78.9011" fill="#FEC2DE"/>
<path d="M297.244 40.6633C292.592 39.1346 284.269 31.2501 279.727 29.4216C273.108 26.7666 271.645 37.0062 277.496 50.1715C267.256 46.5145 252.628 51.6343 270.182 65.531C262.136 64.7996 258.479 77.2335 282.287 78.9011" stroke="#C0216B" stroke-width="3" stroke-linecap="round" stroke-linejoin="round"/>
<path fill-rule="evenodd" clip-rule="evenodd" d="M280.524 71.6455C278.22 72.6183 275.916 72.6183 273.605 71.6455Z" fill="#FEC2DE"/>
<path d="M280.524 71.6455C278.22 72.6183 275.916 72.6183 273.605 71.6455" stroke="#C0216B" stroke-width="3" stroke-linecap="round" stroke-linejoin="round"/>
<path fill-rule="evenodd" clip-rule="evenodd" d="M281.87 60.0453C279.42 60.4915 276.969 60.1184 274.57 58.2168Z" fill="#FEC2DE"/>
<path d="M281.87 60.0453C279.42 60.4915 276.969 60.1184 274.57 58.2168" stroke="#C0216B" stroke-width="3" stroke-linecap="round" stroke-linejoin="round"/>
<path fill-rule="evenodd" clip-rule="evenodd" d="M289.784 47.0923C286.887 45.6807 284.986 44.269 284.071 42.8647Z" fill="#FEC2DE"/>
<path d="M289.784 47.0923C286.887 45.6807 284.986 44.269 284.071 42.8647" stroke="#C0216B" stroke-width="3" stroke-linecap="round" stroke-linejoin="round"/>
<path fill-rule="evenodd" clip-rule="evenodd" d="M372.579 69.1879C372.579 89.382 351.946 98.444 326.5 98.444C301.055 98.444 280.422 89.382 280.422 69.1879C280.422 48.9938 301.047 32.6177 326.5 32.6177C351.953 32.6177 372.579 48.9938 372.579 69.1879Z" fill="#FEC2DE" stroke="#C0216B" stroke-width="3" stroke-linecap="round" stroke-linejoin="round"/>
<path d="M332.717 76.1362C332.717 76.1362 326.5 82.3532 319.552 76.1362" stroke="black" stroke-width="3" stroke-miterlimit="10" stroke-linecap="round"/>
<path d="M304.924 68.0908C307.347 68.0908 309.312 66.126 309.312 63.7024C309.312 61.2787 307.347 59.314 304.924 59.314C302.5 59.314 300.535 61.2787 300.535 63.7024C300.535 66.126 302.5 68.0908 304.924 68.0908Z" fill="black"/>
<path d="M305.655 62.971C306.463 62.971 307.118 62.3161 307.118 61.5082C307.118 60.7003 306.463 60.0454 305.655 60.0454C304.847 60.0454 304.192 60.7003 304.192 61.5082C304.192 62.3161 304.847 62.971 305.655 62.971Z" fill="white"/>
<path d="M304.924 72.1133C309.569 72.1133 313.335 68.3475 313.335 63.7022C313.335 59.0568 309.569 55.291 304.924 55.291C300.278 55.291 296.512 59.0568 296.512 63.7022C296.512 68.3475 300.278 72.1133 304.924 72.1133Z" stroke="black" stroke-width="3" stroke-linecap="round" stroke-linejoin="round"/>
<path d="M296.512 63.3367L283.347 58.9482" stroke="black" stroke-width="3" stroke-linecap="round" stroke-linejoin="round"/>
<path d="M313.335 65.5307C322.112 64.0679 330.888 64.0679 339.665 65.5307" stroke="black" stroke-width="3" stroke-linecap="round" stroke-linejoin="round"/>
<path fill-rule="evenodd" clip-rule="evenodd" d="M142.244 92.6633C137.592 91.1346 129.269 83.2501 124.727 81.4216C118.108 78.7666 116.645 89.0062 122.496 102.172C112.256 98.5145 97.6282 103.634 115.182 117.531C107.136 116.8 103.479 129.233 127.287 130.901" fill="#FEC2DE"/>
<path d="M142.244 92.6633C137.592 91.1346 129.269 83.2501 124.727 81.4216C118.108 78.7666 116.645 89.0062 122.496 102.172C112.256 98.5145 97.6282 103.634 115.182 117.531C107.136 116.8 103.479 129.233 127.287 130.901" stroke="#C0216B" stroke-width="3" stroke-linecap="round" stroke-linejoin="round"/>
<path fill-rule="evenodd" clip-rule="evenodd" d="M125.524 123.646C123.22 124.618 120.916 124.618 118.605 123.646Z" fill="#FEC2DE"/>
<path d="M125.524 123.646C123.22 124.618 120.916 124.618 118.605 123.646" stroke="#C0216B" stroke-width="3" stroke-linecap="round" stroke-linejoin="round"/>
<path fill-rule="evenodd" clip-rule="evenodd" d="M126.87 112.045C124.42 112.491 121.969 112.118 119.57 110.217Z" fill="#FEC2DE"/>
<path d="M126.87 112.045C124.42 112.491 121.969 112.118 119.57 110.217" stroke="#C0216B" stroke-width="3" stroke-linecap="round" stroke-linejoin="round"/>
<path fill-rule="evenodd" clip-rule="evenodd" d="M134.784 99.0923C131.887 97.6807 129.986 96.269 129.071 94.8647Z" fill="#FEC2DE"/>
<path d="M134.784 99.0923C131.887 97.6807 129.986 96.269 129.071 94.8647" stroke="#C0216B" stroke-width="3" stroke-linecap="round" stroke-linejoin="round"/>
<path fill-rule="evenodd" clip-rule="evenodd" d="M200.756 92.6633C205.408 91.1346 213.731 83.2501 218.273 81.4216C224.892 78.7666 226.355 89.0062 220.504 102.172C230.744 98.5145 245.372 103.634 227.818 117.531C235.864 116.8 239.521 129.233 215.713 130.901" fill="#FEC2DE"/>
<path d="M200.756 92.6633C205.408 91.1346 213.731 83.2501 218.273 81.4216C224.892 78.7666 226.355 89.0062 220.504 102.172C230.744 98.5145 245.372 103.634 227.818 117.531C235.864 116.8 239.521 129.233 215.713 130.901" stroke="#C0216B" stroke-width="3" stroke-linecap="round" stroke-linejoin="round"/>
<path fill-rule="evenodd" clip-rule="evenodd" d="M217.469 123.646C219.773 124.618 222.077 124.618 224.388 123.646Z" fill="#FEC2DE"/>
<path d="M217.469 123.646C219.773 124.618 222.077 124.618 224.388 123.646" stroke="#C0216B" stroke-width="3" stroke-linecap="round" stroke-linejoin="round"/>
<path fill-rule="evenodd" clip-rule="evenodd" d="M216.123 112.045C218.573 112.491 221.023 112.118 223.422 110.217Z" fill="#FEC2DE"/>
<path d="M216.123 112.045C218.573 112.491 221.023 112.118 223.422 110.217" stroke="#C0216B" stroke-width="3" stroke-linecap="round" stroke-linejoin="round"/>
<path fill-rule="evenodd" clip-rule="evenodd" d="M208.209 99.0923C211.106 97.6807 213.007 96.269 213.921 94.8647Z" fill="#FEC2DE"/>
<path d="M208.209 99.0923C211.106 97.6807 213.007 96.269 213.921 94.8647" stroke="#C0216B" stroke-width="3" stroke-linecap="round" stroke-linejoin="round"/>
<path fill-rule="evenodd" clip-rule="evenodd" d="M217.579 121.188C217.579 141.382 196.946 150.444 171.5 150.444C146.055 150.444 125.422 141.382 125.422 121.188C125.422 100.994 146.047 84.6177 171.5 84.6177C196.953 84.6177 217.579 100.994 217.579 121.188Z" fill="#FEC2DE" stroke="#C0216B" stroke-width="3" stroke-linecap="round" stroke-linejoin="round"/>
<path d="M177.717 128.136C177.717 128.136 171.5 134.353 164.552 128.136" stroke="black" stroke-width="3" stroke-miterlimit="10" stroke-linecap="round"/>
<path d="M149.924 120.091C152.347 120.091 154.312 118.126 154.312 115.702C154.312 113.279 152.347 111.314 149.924 111.314C147.5 111.314 145.535 113.279 145.535 115.702C145.535 118.126 147.5 120.091 149.924 120.091Z" fill="black"/>
<path d="M150.655 114.971C151.463 114.971 152.118 114.316 152.118 113.508C152.118 112.7 151.463 112.045 150.655 112.045C149.847 112.045 149.192 112.7 149.192 113.508C149.192 114.316 149.847 114.971 150.655 114.971Z" fill="white"/>
<path d="M193.076 120.091C195.5 120.091 197.465 118.126 197.465 115.702C197.465 113.279 195.5 111.314 193.076 111.314C190.653 111.314 188.688 113.279 188.688 115.702C188.688 118.126 190.653 120.091 193.076 120.091Z" fill="black"/>
<path d="M192.345 114.971C193.153 114.971 193.808 114.316 193.808 113.508C193.808 112.7 193.153 112.045 192.345 112.045C191.537 112.045 190.882 112.7 190.882 113.508C190.882 114.316 191.537 114.971 192.345 114.971Z" fill="white"/>
<path d="M149.924 124.113C154.569 124.113 158.335 120.348 158.335 115.702C158.335 111.057 154.569 107.291 149.924 107.291C145.278 107.291 141.512 111.057 141.512 115.702C141.512 120.348 145.278 124.113 149.924 124.113Z" stroke="black" stroke-width="3" stroke-linecap="round" stroke-linejoin="round"/>
<path d="M141.512 115.337L128.347 110.948" stroke="black" stroke-width="3" stroke-linecap="round" stroke-linejoin="round"/>
<path d="M158.335 117.531C167.112 116.068 175.888 116.068 184.665 117.531" stroke="black" stroke-width="3" stroke-linecap="round" stroke-linejoin="round"/>
<path d="M193.076 124.113C197.722 124.113 201.488 120.348 201.488 115.702C201.488 111.057 197.722 107.291 193.076 107.291C188.431 107.291 184.665 111.057 184.665 115.702C184.665 120.348 188.431 124.113 193.076 124.113Z" stroke="black" stroke-width="3" stroke-linecap="round" stroke-linejoin="round"/>
<path d="M201.488 115.337L214.653 110.948" stroke="black" stroke-width="3" stroke-linecap="round" stroke-linejoin="round"/>
<path fill-rule="evenodd" clip-rule="evenodd" d="M229.223 190.726C226.158 189.713 220.673 184.49 217.68 183.279C213.319 181.521 212.355 188.303 216.21 197.024C209.463 194.602 199.825 197.993 211.391 207.198C206.09 206.714 203.68 214.95 219.367 216.055" fill="#FEC2DE"/>
<path d="M229.223 190.726C226.158 189.713 220.673 184.49 217.68 183.279C213.319 181.521 212.355 188.303 216.21 197.024C209.463 194.602 199.825 197.993 211.391 207.198C206.09 206.714 203.68 214.95 219.367 216.055" stroke="#C0216B" stroke-width="3" stroke-linecap="round" stroke-linejoin="round"/>
<path fill-rule="evenodd" clip-rule="evenodd" d="M218.206 211.249C216.688 211.893 215.17 211.893 213.647 211.249Z" fill="#FEC2DE"/>
<path d="M218.206 211.249C216.688 211.893 215.17 211.893 213.647 211.249" stroke="#C0216B" stroke-width="3" stroke-linecap="round" stroke-linejoin="round"/>
<path fill-rule="evenodd" clip-rule="evenodd" d="M219.092 203.565C217.478 203.86 215.863 203.613 214.283 202.354Z" fill="#FEC2DE"/>
<path d="M219.092 203.565C217.478 203.86 215.863 203.613 214.283 202.354" stroke="#C0216B" stroke-width="3" stroke-linecap="round" stroke-linejoin="round"/>
<path fill-rule="evenodd" clip-rule="evenodd" d="M224.307 194.984C222.398 194.049 221.145 193.114 220.543 192.184Z" fill="#FEC2DE"/>
<path d="M224.307 194.984C222.398 194.049 221.145 193.114 220.543 192.184" stroke="#C0216B" stroke-width="3" stroke-linecap="round" stroke-linejoin="round"/>
<path fill-rule="evenodd" clip-rule="evenodd" d="M267.777 190.726C270.842 189.713 276.327 184.49 279.32 183.279C283.681 181.521 284.645 188.303 280.79 197.024C287.537 194.602 297.175 197.993 285.609 207.198C290.91 206.714 293.32 214.95 277.633 216.055" fill="#FEC2DE"/>
<path d="M267.777 190.726C270.842 189.713 276.327 184.49 279.32 183.279C283.681 181.521 284.645 188.303 280.79 197.024C287.537 194.602 297.175 197.993 285.609 207.198C290.91 206.714 293.32 214.95 277.633 216.055" stroke="#C0216B" stroke-width="3" stroke-linecap="round" stroke-linejoin="round"/>
<path fill-rule="evenodd" clip-rule="evenodd" d="M278.79 211.249C280.308 211.893 281.826 211.893 283.349 211.249Z" fill="#FEC2DE"/>
<path d="M278.79 211.249C280.308 211.893 281.826 211.893 283.349 211.249" stroke="#C0216B" stroke-width="3" stroke-linecap="round" stroke-linejoin="round"/>
<path fill-rule="evenodd" clip-rule="evenodd" d="M277.903 203.565C279.517 203.86 281.132 203.613 282.713 202.354Z" fill="#FEC2DE"/>
<path d="M277.903 203.565C279.517 203.86 281.132 203.613 282.713 202.354" stroke="#C0216B" stroke-width="3" stroke-linecap="round" stroke-linejoin="round"/>
<path fill-rule="evenodd" clip-rule="evenodd" d="M272.688 194.984C274.597 194.049 275.85 193.114 276.452 192.184Z" fill="#FEC2DE"/>
<path d="M272.688 194.984C274.597 194.049 275.85 193.114 276.452 192.184" stroke="#C0216B" stroke-width="3" stroke-linecap="round" stroke-linejoin="round"/>
<path fill-rule="evenodd" clip-rule="evenodd" d="M278.862 209.621C278.862 222.997 265.266 229 248.5 229C231.734 229 218.138 222.997 218.138 209.621C218.138 196.244 231.729 185.396 248.5 185.396C265.271 185.396 278.862 196.244 278.862 209.621Z" fill="#FEC2DE" stroke="#C0216B" stroke-width="3" stroke-linecap="round" stroke-linejoin="round"/>
<path d="M252.596 214.223C252.596 214.223 248.5 218.341 243.922 214.223" stroke="black" stroke-width="3" stroke-miterlimit="10" stroke-linecap="round"/>
<path d="M234.283 208.894C235.88 208.894 237.175 207.592 237.175 205.987C237.175 204.382 235.88 203.08 234.283 203.08C232.686 203.08 231.391 204.382 231.391 205.987C231.391 207.592 232.686 208.894 234.283 208.894Z" fill="black"/>
<path d="M234.765 205.502C235.297 205.502 235.729 205.069 235.729 204.533C235.729 203.998 235.297 203.564 234.765 203.564C234.233 203.564 233.801 203.998 233.801 204.533C233.801 205.069 234.233 205.502 234.765 205.502Z" fill="white"/>
<path d="M262.717 208.894C264.314 208.894 265.609 207.592 265.609 205.987C265.609 204.382 264.314 203.08 262.717 203.08C261.12 203.08 259.825 204.382 259.825 205.987C259.825 207.592 261.12 208.894 262.717 208.894Z" fill="black"/>
<path d="M262.235 205.502C262.767 205.502 263.199 205.069 263.199 204.533C263.199 203.998 262.767 203.564 262.235 203.564C261.703 203.564 261.271 203.998 261.271 204.533C261.271 205.069 261.703 205.502 262.235 205.502Z" fill="white"/>
<path d="M234.283 211.559C237.344 211.559 239.825 209.064 239.825 205.987C239.825 202.91 237.344 200.416 234.283 200.416C231.222 200.416 228.741 202.91 228.741 205.987C228.741 209.064 231.222 211.559 234.283 211.559Z" stroke="black" stroke-width="3" stroke-linecap="round" stroke-linejoin="round"/>
<path d="M228.741 205.745L220.066 202.838" stroke="black" stroke-width="3" stroke-linecap="round" stroke-linejoin="round"/>
<path d="M239.825 207.198C245.608 206.229 251.392 206.229 257.175 207.198" stroke="black" stroke-width="3" stroke-linecap="round" stroke-linejoin="round"/>
<path d="M262.717 211.559C265.778 211.559 268.259 209.064 268.259 205.987C268.259 202.91 265.778 200.416 262.717 200.416C259.656 200.416 257.175 202.91 257.175 205.987C257.175 209.064 259.656 211.559 262.717 211.559Z" stroke="black" stroke-width="3" stroke-linecap="round" stroke-linejoin="round"/>
<path d="M268.259 205.745L276.934 202.838" stroke="black" stroke-width="3" stroke-linecap="round" stroke-linejoin="round"/>
<path fill-rule="evenodd" clip-rule="evenodd" d="M95.3261 238.909C91.3234 237.61 84.1615 230.912 80.2532 229.358C74.5576 227.102 73.2989 235.802 78.3337 246.987C69.5228 243.88 56.9359 248.23 72.0402 260.037C65.1174 259.415 61.9707 269.979 82.4559 271.396" fill="#FEC2DE"/>
<path d="M95.3261 238.909C91.3234 237.61 84.1615 230.912 80.2532 229.358C74.5576 227.102 73.2989 235.802 78.3337 246.987C69.5228 243.88 56.9359 248.23 72.0402 260.037C65.1174 259.415 61.9707 269.979 82.4559 271.396" stroke="#C0216B" stroke-width="3" stroke-linecap="round" stroke-linejoin="round"/>
<path fill-rule="evenodd" clip-rule="evenodd" d="M80.9392 265.232C78.9568 266.058 76.9743 266.058 74.9856 265.232Z" fill="#FEC2DE"/>
<path d="M80.9392 265.232C78.9568 266.058 76.9743 266.058 74.9856 265.232" stroke="#C0216B" stroke-width="3" stroke-linecap="round" stroke-linejoin="round"/>
<path fill-rule="evenodd" clip-rule="evenodd" d="M82.0973 255.376C79.989 255.755 77.8807 255.438 75.8164 253.823Z" fill="#FEC2DE"/>
<path d="M82.0973 255.376C79.989 255.755 77.8807 255.438 75.8164 253.823" stroke="#C0216B" stroke-width="3" stroke-linecap="round" stroke-linejoin="round"/>
<path fill-rule="evenodd" clip-rule="evenodd" d="M88.9067 244.371C86.4144 243.172 84.7781 241.973 83.9915 240.78Z" fill="#FEC2DE"/>
<path d="M88.9067 244.371C86.4144 243.172 84.7781 241.973 83.9915 240.78" stroke="#C0216B" stroke-width="3" stroke-linecap="round" stroke-linejoin="round"/>
<path fill-rule="evenodd" clip-rule="evenodd" d="M145.674 238.909C149.676 237.61 156.838 230.912 160.747 229.358C166.442 227.102 167.701 235.802 162.666 246.987C171.477 243.88 184.064 248.23 168.96 260.037C175.883 259.415 179.029 269.979 158.544 271.396" fill="#FEC2DE"/>
<path d="M145.674 238.909C149.676 237.61 156.838 230.912 160.747 229.358C166.442 227.102 167.701 235.802 162.666 246.987C171.477 243.88 184.064 248.23 168.96 260.037C175.883 259.415 179.029 269.979 158.544 271.396" stroke="#C0216B" stroke-width="3" stroke-linecap="round" stroke-linejoin="round"/>
<path fill-rule="evenodd" clip-rule="evenodd" d="M160.054 265.232C162.037 266.058 164.019 266.058 166.008 265.232Z" fill="#FEC2DE"/>
<path d="M160.054 265.232C162.037 266.058 164.019 266.058 166.008 265.232" stroke="#C0216B" stroke-width="3" stroke-linecap="round" stroke-linejoin="round"/>
<path fill-rule="evenodd" clip-rule="evenodd" d="M158.896 255.376C161.005 255.755 163.113 255.438 165.177 253.823Z" fill="#FEC2DE"/>
<path d="M158.896 255.376C161.005 255.755 163.113 255.438 165.177 253.823" stroke="#C0216B" stroke-width="3" stroke-linecap="round" stroke-linejoin="round"/>
<path fill-rule="evenodd" clip-rule="evenodd" d="M152.087 244.371C154.579 243.172 156.215 241.973 157.002 240.78Z" fill="#FEC2DE"/>
<path d="M152.087 244.371C154.579 243.172 156.215 241.973 157.002 240.78" stroke="#C0216B" stroke-width="3" stroke-linecap="round" stroke-linejoin="round"/>
<path fill-rule="evenodd" clip-rule="evenodd" d="M160.149 263.144C160.149 280.301 142.395 288 120.5 288C98.605 288 80.8511 280.301 80.8511 263.144C80.8511 245.987 98.5987 232.074 120.5 232.074C142.401 232.074 160.149 245.987 160.149 263.144Z" fill="#FEC2DE" stroke="#C0216B" stroke-width="3" stroke-linecap="round" stroke-linejoin="round"/>
<path d="M125.849 269.047C125.849 269.047 120.5 274.329 114.521 269.047" stroke="black" stroke-width="3" stroke-miterlimit="10" stroke-linecap="round"/>
<path d="M101.934 262.212C104.02 262.212 105.71 260.542 105.71 258.483C105.71 256.424 104.02 254.755 101.934 254.755C99.8488 254.755 98.1582 256.424 98.1582 258.483C98.1582 260.542 99.8488 262.212 101.934 262.212Z" fill="black"/>
<path d="M102.564 257.862C103.259 257.862 103.822 257.306 103.822 256.619C103.822 255.933 103.259 255.376 102.564 255.376C101.868 255.376 101.305 255.933 101.305 256.619C101.305 257.306 101.868 257.862 102.564 257.862Z" fill="white"/>
<path d="M139.066 262.212C141.151 262.212 142.842 260.542 142.842 258.483C142.842 256.424 141.151 254.755 139.066 254.755C136.98 254.755 135.29 256.424 135.29 258.483C135.29 260.542 136.98 262.212 139.066 262.212Z" fill="black"/>
<path d="M138.436 257.862C139.132 257.862 139.695 257.306 139.695 256.619C139.695 255.933 139.132 255.376 138.436 255.376C137.741 255.376 137.178 255.933 137.178 256.619C137.178 257.306 137.741 257.862 138.436 257.862Z" fill="white"/>
<path d="M101.934 265.63C105.931 265.63 109.172 262.43 109.172 258.484C109.172 254.537 105.931 251.337 101.934 251.337C97.9371 251.337 94.6968 254.537 94.6968 258.484C94.6968 262.43 97.9371 265.63 101.934 265.63Z" stroke="black" stroke-width="3" stroke-linecap="round" stroke-linejoin="round"/>
<path d="M94.6967 258.173L83.3684 254.444" stroke="black" stroke-width="3" stroke-linecap="round" stroke-linejoin="round"/>
<path d="M109.172 260.037C116.724 258.794 124.276 258.794 131.828 260.037" stroke="black" stroke-width="3" stroke-linecap="round" stroke-linejoin="round"/>
<path d="M139.066 265.63C143.063 265.63 146.303 262.43 146.303 258.484C146.303 254.537 143.063 251.337 139.066 251.337C135.068 251.337 131.828 254.537 131.828 258.484C131.828 262.43 135.068 265.63 139.066 265.63Z" stroke="black" stroke-width="3" stroke-linecap="round" stroke-linejoin="round"/>
<path d="M146.303 258.173L157.631 254.444" stroke="black" stroke-width="3" stroke-linecap="round" stroke-linejoin="round"/>
<path fill-rule="evenodd" clip-rule="evenodd" d="M95.3261 -33.0909C91.3234 -34.3896 84.1615 -41.0883 80.2532 -42.6418C74.5576 -44.8975 73.2989 -36.1979 78.3337 -25.0126C69.5228 -28.1196 56.9359 -23.7698 72.0402 -11.9631C65.1174 -12.5846 61.9707 -2.02069 82.4559 -0.603894" fill="#FEC2DE"/>
<path d="M95.3261 -33.0909C91.3234 -34.3896 84.1615 -41.0883 80.2532 -42.6418C74.5576 -44.8975 73.2989 -36.1979 78.3337 -25.0126C69.5228 -28.1196 56.9359 -23.7698 72.0402 -11.9631C65.1174 -12.5846 61.9707 -2.02069 82.4559 -0.603894" stroke="#C0216B" stroke-width="3" stroke-linecap="round" stroke-linejoin="round"/>
<path fill-rule="evenodd" clip-rule="evenodd" d="M145.674 -33.0909C149.676 -34.3896 156.838 -41.0883 160.747 -42.6418C166.442 -44.8975 167.701 -36.1979 162.666 -25.0126C171.477 -28.1196 184.064 -23.7698 168.96 -11.9631C175.883 -12.5846 179.029 -2.02069 158.544 -0.603894" fill="#FEC2DE"/>
<path d="M145.674 -33.0909C149.676 -34.3896 156.838 -41.0883 160.747 -42.6418C166.442 -44.8975 167.701 -36.1979 162.666 -25.0126C171.477 -28.1196 184.064 -23.7698 168.96 -11.9631C175.883 -12.5846 179.029 -2.02069 158.544 -0.603894" stroke="#C0216B" stroke-width="3" stroke-linecap="round" stroke-linejoin="round"/>
<path fill-rule="evenodd" clip-rule="evenodd" d="M160.149 -8.85611C160.149 8.30084 142.395 16 120.5 16C98.605 16 80.8511 8.30084 80.8511 -8.85611C80.8511 -26.0131 98.5987 -39.9263 120.5 -39.9263C142.401 -39.9263 160.149 -26.0131 160.149 -8.85611Z" fill="#FEC2DE" stroke="#C0216B" stroke-width="3" stroke-linecap="round" stroke-linejoin="round"/>
<path d="M125.849 -2.95264C125.849 -2.95264 120.5 2.32929 114.521 -2.95264" stroke="black" stroke-width="3" stroke-miterlimit="10" stroke-linecap="round"/>
<path fill-rule="evenodd" clip-rule="evenodd" d="M336.687 156.405C332.901 155.173 326.126 148.814 322.429 147.34C317.041 145.199 315.85 153.456 320.613 164.073C312.278 161.124 300.372 165.252 314.66 176.459C308.111 175.869 305.134 185.896 324.512 187.24" fill="#FEC2DE"/>
<path d="M336.687 156.405C332.901 155.173 326.126 148.814 322.429 147.34C317.041 145.199 315.85 153.456 320.613 164.073C312.278 161.124 300.372 165.252 314.66 176.459C308.111 175.869 305.134 185.896 324.512 187.24" stroke="#C0216B" stroke-width="3" stroke-linecap="round" stroke-linejoin="round"/>
<path fill-rule="evenodd" clip-rule="evenodd" d="M323.078 181.39C321.202 182.174 319.327 182.174 317.446 181.39Z" fill="#FEC2DE"/>
<path d="M323.078 181.39C321.202 182.174 319.327 182.174 317.446 181.39" stroke="#C0216B" stroke-width="3" stroke-linecap="round" stroke-linejoin="round"/>
<path fill-rule="evenodd" clip-rule="evenodd" d="M324.173 172.035C322.179 172.395 320.184 172.094 318.232 170.561Z" fill="#FEC2DE"/>
<path d="M324.173 172.035C322.179 172.395 320.184 172.094 318.232 170.561" stroke="#C0216B" stroke-width="3" stroke-linecap="round" stroke-linejoin="round"/>
<path fill-rule="evenodd" clip-rule="evenodd" d="M330.615 161.59C328.257 160.451 326.709 159.313 325.965 158.181Z" fill="#FEC2DE"/>
<path d="M330.615 161.59C328.257 160.451 326.709 159.313 325.965 158.181" stroke="#C0216B" stroke-width="3" stroke-linecap="round" stroke-linejoin="round"/>
<path fill-rule="evenodd" clip-rule="evenodd" d="M398.006 179.408C398.006 195.692 381.212 203 360.5 203C339.789 203 322.994 195.692 322.994 179.408C322.994 163.123 339.783 149.917 360.5 149.917C381.218 149.917 398.006 163.123 398.006 179.408Z" fill="#FEC2DE" stroke="#C0216B" stroke-width="3" stroke-linecap="round" stroke-linejoin="round"/>
<path d="M336.092 174.69L325.376 171.151" stroke="black" stroke-width="3" stroke-linecap="round" stroke-linejoin="round"/>
</g>
<defs>
<clipPath id="clip0_217_1392">
<rect width="327" height="272" fill="white"/>
</clipPath>
</defs>
</svg>
