<svg width="253" height="44" viewBox="0 0 253 44" fill="none" xmlns="http://www.w3.org/2000/svg">
<path d="M243.988 10.5717C243.988 7.04777 244.162 3.52388 244.51 0L252.41 0.174259C252.41 1.76194 252.391 3.67878 252.352 5.92478C252.313 8.17077 252.274 10.5717 252.236 13.1274C252.197 15.6832 252.158 18.3358 252.12 21.0852C252.12 23.8346 252.12 26.4872 252.12 29.043C252.12 31.5988 252.139 33.9997 252.178 36.2457C252.216 38.4529 252.274 40.3311 252.352 41.88C252.158 42.1124 251.674 42.2285 250.9 42.2285C250.125 42.2672 249.273 42.2672 248.344 42.2285C247.453 42.2285 246.601 42.2092 245.788 42.1704C244.975 42.1317 244.433 42.1511 244.162 42.2285C244.433 38.7434 244.53 35.2388 244.452 31.715C244.414 28.1911 244.336 24.6672 244.22 21.1433C244.104 17.6194 244.026 14.0955 243.988 10.5717Z" fill="#C0216B"/>
<path d="M230.296 2.55572C230.954 2.59444 231.612 2.57508 232.27 2.49763V10.2812C232.27 10.7846 232.27 11.3073 232.27 11.8495C232.309 12.3916 232.329 12.9531 232.329 13.534C233.529 13.4952 234.788 13.4372 236.104 13.3597C237.46 13.2823 239.125 13.1855 241.1 13.0693C241.371 13.3791 241.526 13.8438 241.564 14.4633C241.603 15.0442 241.603 15.6832 241.564 16.3802C241.526 17.0772 241.467 17.7936 241.39 18.5294C241.351 19.2264 241.371 19.8266 241.448 20.33H232.445C232.445 22.4211 232.445 24.4735 232.445 26.4872C232.445 28.4621 232.464 30.3208 232.503 32.0634C232.89 32.6055 233.452 33.0315 234.187 33.3413C234.923 33.6511 235.717 33.9028 236.569 34.0964C237.421 34.2513 238.273 34.3481 239.125 34.3868C240.015 34.4256 240.79 34.4256 241.448 34.3868C241.526 34.929 241.603 35.5292 241.68 36.1875C241.758 36.8458 241.816 37.5235 241.855 38.2205C241.893 38.9176 241.874 39.6146 241.797 40.3116C241.758 41.0087 241.642 41.6476 241.448 42.2285C239.899 42.3059 238.292 42.3059 236.627 42.2285C234.962 42.1123 233.393 41.8799 231.922 41.5314C230.45 41.1829 229.134 40.6601 227.972 39.9631C226.849 39.2661 226.036 38.3173 225.533 37.1169C225.029 34.1351 224.739 31.3277 224.661 28.6944C224.584 26.0225 224.564 23.2731 224.603 20.4462C223.984 20.4849 223.325 20.5043 222.628 20.5043C221.97 20.5043 221.234 20.5043 220.421 20.5043L220.595 13.4178C221.37 13.4565 222.086 13.4759 222.744 13.4759C223.441 13.4759 224.1 13.4759 224.719 13.4759C224.719 12.624 224.7 11.7139 224.661 10.7458C224.623 9.73902 224.603 8.7322 224.603 7.72537C224.603 6.71855 224.603 5.75045 224.603 4.82107C224.642 3.89169 224.7 3.05913 224.777 2.32337C225.281 2.24593 225.823 2.22656 226.404 2.26529C227.023 2.30401 227.662 2.3621 228.321 2.43954C228.979 2.47827 229.637 2.51699 230.296 2.55572Z" fill="#C0216B"/>
<path d="M196.12 17.4839C196.352 16.7481 196.527 16.1673 196.643 15.7413C196.914 15.1604 197.34 14.657 197.921 14.2311C198.54 13.8051 199.237 13.4566 200.012 13.1855C200.825 12.8757 201.677 12.6627 202.568 12.5466C203.497 12.4304 204.426 12.3723 205.356 12.3723C206.13 12.4498 206.866 12.4691 207.563 12.4304C208.299 12.353 209.073 12.353 209.887 12.4304C211.126 12.5078 212.307 12.7596 213.43 13.1855C214.553 13.5728 215.521 14.1536 216.334 14.9281C216.876 15.2766 217.302 15.8381 217.612 16.6126C217.922 17.3871 218.154 18.2971 218.309 19.3426C218.464 20.3495 218.561 21.4725 218.599 22.7116C218.638 23.9121 218.677 25.1512 218.716 26.4291C218.677 27.5521 218.619 28.83 218.541 30.2628C218.503 31.6956 218.406 33.0703 218.251 34.3869C218.135 35.7035 217.96 36.8846 217.728 37.9302C217.535 38.9757 217.244 39.6921 216.857 40.0793C216.199 41.0087 215.327 41.667 214.243 42.0543C213.197 42.4415 212.055 42.6738 210.816 42.7513C209.577 42.8675 208.299 42.8675 206.982 42.7513C205.666 42.6738 204.465 42.6351 203.381 42.6351C201.406 42.2866 199.741 41.4347 198.385 40.0793C197.34 39.15 196.624 37.9882 196.236 36.5942C195.849 35.2001 195.617 33.748 195.539 32.2377C195.462 30.6888 195.442 29.1398 195.481 27.5908C195.559 26.0419 195.539 24.6285 195.423 23.3506C195.423 22.6535 195.442 21.9759 195.481 21.3176C195.52 20.6205 195.597 19.9041 195.714 19.1684C195.752 18.7424 195.888 18.1809 196.12 17.4839ZM205.879 21.3176C205.065 21.5499 204.407 21.9759 203.904 22.5954C203.671 22.7503 203.497 23.1376 203.381 23.7572C203.226 24.9963 203.149 26.2355 203.149 27.4747C203.149 28.6751 203.11 29.953 203.032 31.3084C202.994 32.199 203.226 32.896 203.729 33.3994C204.233 33.8641 204.833 34.1933 205.53 34.3869C206.266 34.5418 207.021 34.5805 207.795 34.5031C208.57 34.3869 209.209 34.1933 209.712 33.9222C210.371 33.6124 210.816 32.9735 211.048 32.0054C211.203 30.7662 211.319 29.527 211.397 28.2879C211.513 27.01 211.455 25.8095 211.223 24.6865C211.029 23.3312 210.467 22.3437 209.538 21.7242C208.609 21.1046 207.389 20.969 205.879 21.3176Z" fill="#C0216B"/>
<path d="M183.803 10.5717C183.803 7.04777 183.977 3.52388 184.325 0L192.225 0.174259C192.225 1.76194 192.206 3.67878 192.167 5.92478C192.128 8.17077 192.09 10.5717 192.051 13.1274C192.012 15.6832 191.973 18.3358 191.935 21.0852C191.935 23.8346 191.935 26.4872 191.935 29.043C191.935 31.5988 191.954 33.9997 191.993 36.2457C192.032 38.4529 192.09 40.3311 192.167 41.88C191.973 42.1124 191.489 42.2285 190.715 42.2285C189.94 42.2672 189.089 42.2672 188.159 42.2285C187.269 42.2285 186.417 42.2092 185.603 42.1704C184.79 42.1317 184.248 42.1511 183.977 42.2285C184.248 38.7434 184.345 35.2388 184.267 31.715C184.229 28.1911 184.151 24.6672 184.035 21.1433C183.919 17.6194 183.841 14.0955 183.803 10.5717Z" fill="#C0216B"/>
<path d="M158.115 17.4839C158.347 16.7481 158.521 16.1673 158.637 15.7413C158.908 15.1604 159.334 14.657 159.915 14.2311C160.535 13.8051 161.232 13.4566 162.006 13.1855C162.82 12.8757 163.672 12.6627 164.562 12.5466C165.492 12.4304 166.421 12.3723 167.35 12.3723C168.125 12.4498 168.861 12.4691 169.558 12.4304C170.293 12.353 171.068 12.353 171.881 12.4304C173.12 12.5078 174.301 12.7596 175.424 13.1855C176.547 13.5728 177.515 14.1536 178.329 14.9281C178.871 15.2766 179.297 15.8381 179.606 16.6126C179.916 17.3871 180.149 18.2971 180.304 19.3426C180.458 20.3495 180.555 21.4725 180.594 22.7116C180.633 23.9121 180.671 25.1512 180.71 26.4291C180.671 27.5521 180.613 28.83 180.536 30.2628C180.497 31.6956 180.4 33.0703 180.245 34.3869C180.129 35.7035 179.955 36.8846 179.723 37.9302C179.529 38.9757 179.239 39.6921 178.851 40.0793C178.193 41.0087 177.322 41.667 176.237 42.0543C175.192 42.4415 174.05 42.6738 172.81 42.7513C171.571 42.8675 170.293 42.8675 168.977 42.7513C167.66 42.6738 166.46 42.6351 165.375 42.6351C163.4 42.2866 161.735 41.4347 160.38 40.0793C159.334 39.15 158.618 37.9882 158.231 36.5942C157.844 35.2001 157.611 33.748 157.534 32.2377C157.456 30.6888 157.437 29.1398 157.476 27.5908C157.553 26.0419 157.534 24.6285 157.418 23.3506C157.418 22.6535 157.437 21.9759 157.476 21.3176C157.514 20.6205 157.592 19.9041 157.708 19.1684C157.747 18.7424 157.882 18.1809 158.115 17.4839ZM167.873 21.3176C167.06 21.5499 166.402 21.9759 165.898 22.5954C165.666 22.7503 165.492 23.1376 165.375 23.7572C165.221 24.9963 165.143 26.2355 165.143 27.4747C165.143 28.6751 165.104 29.953 165.027 31.3084C164.988 32.199 165.221 32.896 165.724 33.3994C166.227 33.8641 166.828 34.1933 167.525 34.3869C168.26 34.5418 169.015 34.5805 169.79 34.5031C170.564 34.3869 171.203 34.1933 171.707 33.9222C172.365 33.6124 172.81 32.9735 173.043 32.0054C173.198 30.7662 173.314 29.527 173.391 28.2879C173.507 27.01 173.449 25.8095 173.217 24.6865C173.023 23.3312 172.462 22.3437 171.533 21.7242C170.603 21.1046 169.383 20.969 167.873 21.3176Z" fill="#C0216B"/>
<path d="M154.037 16.4964C154.812 18.1616 155.199 20.0397 155.199 22.1308C153.96 22.3244 152.585 22.4406 151.075 22.4793C149.603 22.518 148.209 22.4018 146.893 22.1308C147.009 21.6661 146.951 21.2014 146.718 20.7367C146.525 20.272 146.215 19.8654 145.789 19.5169C145.402 19.1684 144.937 18.9167 144.395 18.7618C143.892 18.5682 143.388 18.4907 142.885 18.5294C141.994 18.6843 141.316 19.0329 140.852 19.575C140.426 20.0784 140.213 20.6399 140.213 21.2595C140.213 21.8791 140.445 22.4986 140.91 23.1182C141.375 23.7378 142.052 24.2025 142.943 24.5123C145.111 24.8221 147.144 25.2481 149.042 25.7902C150.939 26.2936 152.333 27.1262 153.224 28.2879C154.076 29.6819 154.599 31.1147 154.792 32.5862C154.986 34.019 154.715 35.8003 153.979 37.9302C153.089 39.8276 151.694 41.183 149.797 41.9962C147.9 42.8094 145.828 43.1966 143.582 43.1579C141.607 43.2354 139.826 43.0611 138.238 42.6351C136.65 42.2092 135.276 41.5702 134.114 40.7183C132.991 39.8664 132.1 38.8208 131.442 37.5816C130.822 36.3425 130.512 34.9484 130.512 33.3995V33.2252V33.109C131.79 32.9541 133.242 32.9154 134.869 32.9929C136.495 33.0316 137.909 33.0509 139.109 33.0509C139.148 33.9416 139.555 34.6773 140.329 35.2582C141.142 35.8003 141.994 36.1295 142.885 36.2457C143.775 36.3231 144.589 36.1489 145.324 35.7229C146.06 35.2969 146.409 34.5225 146.37 33.3995C146.486 32.4701 146.273 31.773 145.731 31.3084C145.189 30.8437 144.472 30.4952 143.582 30.2628C142.691 29.9917 141.684 29.7594 140.561 29.5658C139.438 29.3722 138.335 29.043 137.25 28.5783C135.082 27.8426 133.494 26.7002 132.487 25.1512C131.519 23.5636 131.055 21.9372 131.093 20.272C131.171 18.5682 131.713 16.9998 132.72 15.5671C133.765 14.1343 135.237 13.1662 137.134 12.6628C137.87 12.4691 138.761 12.3142 139.806 12.1981C140.89 12.0819 142.033 12.0238 143.233 12.0238C144.434 12.0238 145.634 12.1013 146.835 12.2561C148.035 12.3723 149.139 12.5466 150.146 12.7789C151.966 13.5534 153.263 14.7926 154.037 16.4964Z" fill="black"/>
<path d="M127.887 16.4964C128.662 18.1616 129.049 20.0397 129.049 22.1308C127.81 22.3244 126.435 22.4406 124.925 22.4793C123.453 22.518 122.059 22.4018 120.743 22.1308C120.859 21.6661 120.801 21.2014 120.568 20.7367C120.375 20.272 120.065 19.8654 119.639 19.5169C119.252 19.1684 118.787 18.9167 118.245 18.7618C117.742 18.5682 117.238 18.4907 116.735 18.5294C115.844 18.6843 115.166 19.0329 114.702 19.575C114.276 20.0784 114.063 20.6399 114.063 21.2595C114.063 21.8791 114.295 22.4986 114.76 23.1182C115.224 23.7378 115.902 24.2025 116.793 24.5123C118.961 24.8221 120.994 25.2481 122.892 25.7902C124.789 26.2936 126.183 27.1262 127.074 28.2879C127.926 29.6819 128.449 31.1147 128.642 32.5862C128.836 34.019 128.565 35.8003 127.829 37.9302C126.938 39.8276 125.544 41.183 123.647 41.9962C121.749 42.8094 119.678 43.1966 117.432 43.1579C115.457 43.2354 113.676 43.0611 112.088 42.6351C110.5 42.2092 109.125 41.5702 107.964 40.7183C106.841 39.8664 105.95 38.8208 105.292 37.5816C104.672 36.3425 104.362 34.9484 104.362 33.3995V33.2252V33.109C105.64 32.9541 107.092 32.9154 108.719 32.9929C110.345 33.0316 111.759 33.0509 112.959 33.0509C112.998 33.9416 113.404 34.6773 114.179 35.2582C114.992 35.8003 115.844 36.1295 116.735 36.2457C117.625 36.3231 118.439 36.1489 119.174 35.7229C119.91 35.2969 120.259 34.5225 120.22 33.3995C120.336 32.4701 120.123 31.773 119.581 31.3084C119.039 30.8437 118.322 30.4952 117.432 30.2628C116.541 29.9917 115.534 29.7594 114.411 29.5658C113.288 29.3722 112.185 29.043 111.1 28.5783C108.932 27.8426 107.344 26.7002 106.337 25.1512C105.369 23.5636 104.905 21.9372 104.943 20.272C105.021 18.5682 105.563 16.9998 106.57 15.5671C107.615 14.1343 109.087 13.1662 110.984 12.6628C111.72 12.4691 112.611 12.3142 113.656 12.1981C114.74 12.0819 115.883 12.0238 117.083 12.0238C118.284 12.0238 119.484 12.1013 120.685 12.2561C121.885 12.3723 122.989 12.5466 123.995 12.7789C125.815 13.5534 127.113 14.7926 127.887 16.4964Z" fill="black"/>
<path d="M88.8339 27.8232C87.982 27.7845 87.3624 27.7264 86.9752 27.6489V28.6945C87.0139 29.8562 87.0526 30.8049 87.0913 31.5407C87.1688 32.2764 87.4205 32.9928 87.8465 33.6899C88.3111 34.5805 88.9695 35.2388 89.8214 35.6648C90.6733 36.0908 91.5059 36.2263 92.3191 36.0714C93.1323 35.9165 93.8099 35.4518 94.3521 34.6773C94.9329 33.8641 95.1847 32.6637 95.1072 31.076C95.4944 31.1147 96.0172 31.1341 96.6755 31.1341C97.3338 31.0954 98.0115 31.0566 98.7085 31.0179C99.4443 30.9792 100.141 30.9792 100.8 31.0179C101.458 31.0179 102 31.076 102.426 31.1922C102.349 32.199 102.271 33.1865 102.194 34.1546C102.116 35.1227 102.019 36.0327 101.903 36.8846C101.787 37.6978 101.632 38.4142 101.439 39.0338C101.284 39.6146 101.071 40.0212 100.8 40.2536C100.141 41.183 99.2894 41.8413 98.2438 42.2285C97.1983 42.6157 96.0559 42.8481 94.8168 42.9255C93.5776 43.003 92.2997 43.003 90.9831 42.9255C89.7052 42.8481 88.5241 42.8094 87.4399 42.8094C86.3556 42.6545 85.3488 42.306 84.4194 41.7638C83.3738 41.0281 82.5025 40.0793 81.8055 38.9176C81.1085 37.7172 80.547 36.4199 80.121 35.0258C79.6951 33.5931 79.4046 32.0828 79.2497 30.4951C79.0948 28.9075 79.0561 27.3198 79.1336 25.7321C79.2497 24.2993 79.3659 22.9246 79.4821 21.608C79.637 20.2526 79.9468 18.936 80.4114 17.6581C80.9149 16.5351 81.6893 15.5864 82.7349 14.8119C83.7804 13.9987 84.9615 13.3985 86.2781 13.0113C87.5948 12.5853 88.9888 12.3529 90.4603 12.3142C91.9318 12.2755 93.3646 12.4304 94.7587 12.7789C96.54 13.0887 97.9728 13.7083 99.0571 14.6377C100.141 15.567 100.955 16.69 101.497 18.0066C102.078 19.3233 102.426 20.7754 102.542 22.3631C102.658 23.9508 102.658 25.5578 102.542 27.1842C102.271 27.2617 101.748 27.3391 100.974 27.4166C100.238 27.494 99.3475 27.5715 98.3019 27.6489C97.2951 27.7264 96.2108 27.7845 95.0491 27.8232C93.8874 27.8619 92.7644 27.8813 91.6801 27.8813C90.6346 27.8813 89.6858 27.8619 88.8339 27.8232ZM95.63 20.2139C95.2427 19.5169 94.7006 18.9941 94.0036 18.6456C93.6938 18.452 93.384 18.3164 93.0742 18.239C92.7644 18.1228 92.3965 18.0647 91.9706 18.0647C91.0412 18.0647 90.2861 18.1615 89.7052 18.3552C89.1244 18.5488 88.6597 18.8199 88.3111 19.1684C87.9626 19.5169 87.6916 19.9235 87.4979 20.3882C87.343 20.8529 87.2269 21.3369 87.1494 21.8403C87.072 22.2663 87.0333 22.5761 87.0333 22.7697C87.072 22.9246 87.2656 23.0408 87.6141 23.1182C87.9626 23.1569 88.5048 23.1763 89.2405 23.1763C90.015 23.1376 91.138 23.1182 92.6095 23.1182C93.6163 23.1182 94.3715 23.1376 94.8749 23.1763C95.3783 23.215 95.7268 23.2344 95.9204 23.2344C96.1528 23.1957 96.2689 23.1376 96.2689 23.0601C96.2689 22.944 96.2689 22.731 96.2689 22.4212C96.2689 21.6467 96.0559 20.9109 95.63 20.2139Z" fill="black"/>
<path d="M75.0453 30.9018C75.7036 30.9018 76.2457 30.9598 76.6717 31.076C76.5943 32.0828 76.5168 33.0703 76.4394 34.0384C76.3619 35.0065 76.2651 35.9165 76.1489 36.7684C76.0328 37.5816 75.8779 38.298 75.6842 38.9176C75.5294 39.4985 75.3164 39.9245 75.0453 40.1955C74.387 41.1249 73.5157 41.7832 72.4314 42.1704C71.3859 42.5577 70.2435 42.79 69.0044 42.8675C67.7652 42.9836 66.4873 42.9836 65.1707 42.8675C63.8541 42.79 62.6536 42.7513 61.5693 42.7513C59.5944 42.4028 57.9293 41.5509 56.574 40.1955C55.5284 39.2661 54.812 38.1044 54.4248 36.7104C54.0375 35.3163 53.8052 33.8641 53.7277 32.3539C53.6503 30.8049 53.6309 29.256 53.6697 27.707C53.7471 26.1581 53.7084 24.7446 53.5535 23.4667C53.5535 22.0727 53.6697 20.6786 53.902 19.2846C53.9407 18.8586 54.0763 18.2777 54.3086 17.542C54.5409 16.8062 54.7152 16.2447 54.8314 15.8575C55.1024 15.2766 55.5284 14.7732 56.1093 14.3472C56.7288 13.9213 57.4259 13.5728 58.2004 13.3017C59.0136 12.9919 59.8655 12.7789 60.7561 12.6628C61.6855 12.5466 62.6149 12.4885 63.5443 12.4885C64.3188 12.5659 65.0545 12.5853 65.7515 12.5466C66.4873 12.4691 67.2618 12.4691 68.075 12.5466C69.3142 12.624 70.4952 12.8564 71.6182 13.2436C72.7412 13.6309 73.7093 14.2117 74.5225 14.9862C75.0647 15.3734 75.4713 15.8962 75.7423 16.5545C76.0521 17.2128 76.2845 17.9873 76.4394 18.878C76.5943 19.7686 76.6717 20.7754 76.6717 21.8984C76.7104 22.9827 76.7492 24.1638 76.7879 25.4417C76.2845 25.5578 75.7036 25.6159 75.0453 25.6159C74.4257 25.6159 73.7674 25.5966 73.0704 25.5578C72.4121 25.5191 71.7538 25.461 71.0955 25.3836C70.4759 25.3061 69.9144 25.2287 69.411 25.1512C69.2173 23.7959 68.6558 22.7504 67.7265 22.0146C66.7971 21.2401 65.5773 21.0465 64.067 21.4337C63.2538 21.6661 62.5955 22.092 62.0921 22.7116C61.8598 22.8665 61.6855 23.2538 61.5693 23.8734C61.4145 25.0738 61.337 26.2936 61.337 27.5328C61.337 28.7719 61.2983 30.0692 61.2208 31.4245C61.1434 32.3152 61.3564 33.0122 61.8598 33.5156C62.4019 34.019 63.0409 34.3676 63.7766 34.5612C64.5124 34.7161 65.2675 34.7548 66.042 34.6773C66.8165 34.5612 67.436 34.3482 67.9007 34.0384C68.288 33.7673 68.5784 33.322 68.772 32.7024C69.0044 32.0441 69.1786 31.4633 69.2948 30.9598C69.682 30.9986 70.2048 31.0179 70.8631 31.0179C71.5214 30.9792 72.2185 30.9405 72.9542 30.9018C73.69 30.863 74.387 30.863 75.0453 30.9018Z" fill="black"/>
<path d="M49.3491 30.9018C50.0074 30.9018 50.5495 30.9598 50.9755 31.076C50.898 32.0828 50.8206 33.0703 50.7431 34.0384C50.6657 35.0065 50.5689 35.9165 50.4527 36.7684C50.3365 37.5816 50.1816 38.298 49.988 38.9176C49.8331 39.4985 49.6201 39.9245 49.3491 40.1955C48.6908 41.1249 47.8195 41.7832 46.7352 42.1704C45.6896 42.5577 44.5473 42.79 43.3081 42.8675C42.0689 42.9836 40.7911 42.9836 39.4744 42.8675C38.1578 42.79 36.9574 42.7513 35.8731 42.7513C33.8982 42.4028 32.2331 41.5509 30.8777 40.1955C29.8322 39.2661 29.1158 38.1044 28.7285 36.7104C28.3413 35.3163 28.1089 33.8641 28.0315 32.3539C27.954 30.8049 27.9347 29.256 27.9734 27.707C28.0509 26.1581 28.0121 24.7446 27.8572 23.4667C27.8572 22.0727 27.9734 20.6786 28.2058 19.2846C28.2445 18.8586 28.38 18.2777 28.6124 17.542C28.8447 16.8062 29.019 16.2447 29.1351 15.8575C29.4062 15.2766 29.8322 14.7732 30.413 14.3472C31.0326 13.9213 31.7296 13.5728 32.5041 13.3017C33.3173 12.9919 34.1692 12.7789 35.0599 12.6628C35.9893 12.5466 36.9187 12.4885 37.848 12.4885C38.6225 12.5659 39.3583 12.5853 40.0553 12.5466C40.7911 12.4691 41.5655 12.4691 42.3787 12.5466C43.6179 12.624 44.799 12.8564 45.922 13.2436C47.045 13.6309 48.0131 14.2117 48.8263 14.9862C49.3684 15.3734 49.775 15.8962 50.0461 16.5545C50.3559 17.2128 50.5882 17.9873 50.7431 18.878C50.898 19.7686 50.9755 20.7754 50.9755 21.8984C51.0142 22.9827 51.0529 24.1638 51.0916 25.4417C50.5882 25.5578 50.0074 25.6159 49.3491 25.6159C48.7295 25.6159 48.0712 25.5966 47.3741 25.5578C46.7158 25.5191 46.0575 25.461 45.3992 25.3836C44.7796 25.3061 44.2181 25.2287 43.7147 25.1512C43.5211 23.7959 42.9596 22.7504 42.0302 22.0146C41.1008 21.2401 39.881 21.0465 38.3708 21.4337C37.5576 21.6661 36.8993 22.092 36.3959 22.7116C36.1635 22.8665 35.9893 23.2538 35.8731 23.8734C35.7182 25.0738 35.6408 26.2936 35.6408 27.5328C35.6408 28.7719 35.602 30.0692 35.5246 31.4245C35.4471 32.3152 35.6601 33.0122 36.1635 33.5156C36.7057 34.019 37.3446 34.3676 38.0804 34.5612C38.8161 34.7161 39.5712 34.7548 40.3457 34.6773C41.1202 34.5612 41.7398 34.3482 42.2045 34.0384C42.5917 33.7673 42.8822 33.322 43.0758 32.7024C43.3081 32.0441 43.4824 31.4633 43.5985 30.9598C43.9858 30.9986 44.5086 31.0179 45.1669 31.0179C45.8252 30.9792 46.5222 30.9405 47.258 30.9018C47.9937 30.863 48.6908 30.863 49.3491 30.9018Z" fill="black"/>
<path d="M21.0852 13.1274C22.0533 13.1661 23.157 13.2242 24.3961 13.3017C24.4348 13.534 24.4542 13.7663 24.4542 13.9987C24.4929 14.231 24.5123 14.4634 24.5123 14.6957V15.2766C24.3961 19.4588 24.4155 23.5829 24.5704 27.6489C24.7253 31.6762 24.6672 35.7616 24.3961 39.905C24.3961 40.4085 24.3768 40.9119 24.338 41.4153C24.338 41.9187 24.1057 42.2091 23.641 42.2866H22.944C22.3244 42.2866 21.6854 42.2672 21.0271 42.2285C20.4075 42.151 19.788 42.1123 19.1684 42.1123C18.7424 42.1123 18.3165 42.151 17.8905 42.2285C17.5032 42.2672 17.0966 42.2866 16.6707 42.2866C16.3996 42.2091 16.206 42.0542 16.0898 41.8219C16.0124 41.5895 15.9736 41.3185 15.9736 41.0087C15.9736 40.5827 16.0124 40.2342 16.0898 39.9631C16.1673 39.6921 16.206 39.3629 16.206 38.9757C15.2766 39.905 14.0955 40.6989 12.6627 41.3572C11.2687 42.0155 9.89398 42.3447 8.53864 42.3447C7.02841 42.3447 5.73115 41.8219 4.64688 40.7763C3.60133 39.7308 2.73004 38.4335 2.03301 36.8846C1.33598 35.3356 0.813204 33.6511 0.464688 31.8311C0.154896 30.0111 0 28.3266 0 26.7776C0 24.8414 0.251706 23.0601 0.755118 21.4337C1.25853 19.8073 1.9362 18.4132 2.78813 17.2515C3.67878 16.0511 4.72433 15.1217 5.92477 14.4634C7.12522 13.7663 8.40311 13.3985 9.75845 13.3597C10.4555 13.3597 11.0944 13.3791 11.6753 13.4178C12.2949 13.4178 12.8564 13.5146 13.3598 13.7083C13.8632 13.8631 14.3085 14.1342 14.6958 14.5215C15.083 14.87 15.4122 15.3734 15.6832 16.0317C15.6445 15.4121 15.6639 14.8893 15.7413 14.4634C15.8575 13.9987 15.9156 13.534 15.9156 13.0693C15.9156 13.0306 16.0317 13.0112 16.2641 13.0112C16.5351 12.9725 16.8256 12.9725 17.1354 13.0112C17.4452 13.0112 17.755 13.0112 18.0647 13.0112C18.3745 13.0112 18.5875 13.0112 18.7037 13.0112C19.362 13.0499 20.1558 13.0887 21.0852 13.1274ZM9.1195 22.305C8.22885 23.0407 7.68671 23.8927 7.49309 24.8608C7.3382 25.3642 7.24139 25.887 7.20266 26.4291C7.16394 26.9325 7.14458 27.4359 7.14458 27.9393C7.14458 29.6819 7.5899 31.1728 8.48056 32.4119C9.40993 33.6124 10.6878 34.2126 12.3142 34.2126C13.2823 34.2126 13.9987 34.0577 14.4634 33.7479C14.9668 33.3994 15.3153 32.9347 15.509 32.3539C15.7413 31.7343 15.8575 30.9985 15.8575 30.1466C15.8962 29.2559 15.9156 28.2685 15.9156 27.1842C15.9156 25.8289 15.8962 24.764 15.8575 23.9895C15.8575 23.1763 15.7607 22.5567 15.567 22.1307C15.4122 21.7048 15.1217 21.4337 14.6958 21.3175C14.3085 21.2013 13.7083 21.1433 12.8951 21.1433C11.3074 21.1433 10.0489 21.5305 9.1195 22.305Z" fill="black"/>
</svg>
