<svg width="800" height="144" viewBox="0 0 800 144" fill="none" xmlns="http://www.w3.org/2000/svg">
<path d="M771.504 34.5983C771.504 23.0654 772.054 11.5327 773.154 0L798.134 0.570302C798.134 5.76635 798.074 12.0396 797.951 19.3902C797.828 26.7407 797.704 34.5983 797.584 42.9624C797.461 51.3268 797.338 60.0081 797.217 69.0061C797.217 78.0041 797.217 86.6854 797.217 95.0498C797.217 103.414 797.278 111.272 797.401 118.622C797.521 125.846 797.704 131.993 797.951 137.062C797.338 137.822 795.807 138.202 793.36 138.202C790.909 138.329 788.215 138.329 785.278 138.202C782.46 138.202 779.766 138.139 777.195 138.012C774.625 137.886 772.911 137.949 772.054 138.202C772.911 126.797 773.217 115.327 772.971 103.795C772.851 92.2618 772.604 80.729 772.237 69.1963C771.87 57.6635 771.624 46.1307 771.504 34.5983Z" fill="#C0216B"/>
<path d="M728.209 8.36421C730.289 8.49093 732.37 8.42757 734.451 8.1741V33.6476C734.451 35.2951 734.451 37.0057 734.451 38.7802C734.574 40.5544 734.637 42.392 734.637 44.2931C738.432 44.1661 742.413 43.9763 746.574 43.7227C750.862 43.4694 756.127 43.1526 762.372 42.7723C763.228 43.7862 763.719 45.307 763.839 47.3345C763.962 49.2356 763.962 51.3269 763.839 53.608C763.719 55.8891 763.532 58.2336 763.289 60.6417C763.165 62.9228 763.228 64.8871 763.472 66.5346H735.004C735.004 73.3782 735.004 80.0951 735.004 86.6854C735.004 93.1487 735.064 99.2317 735.187 104.935C736.411 106.709 738.188 108.103 740.512 109.117C742.84 110.131 745.35 110.955 748.044 111.588C750.738 112.095 753.432 112.412 756.126 112.539C758.941 112.666 761.391 112.666 763.472 112.539C763.719 114.313 763.962 116.277 764.206 118.432C764.452 120.586 764.636 122.804 764.759 125.085C764.879 127.367 764.819 129.648 764.575 131.929C764.452 134.21 764.085 136.301 763.472 138.202C758.574 138.456 753.492 138.456 748.228 138.202C742.963 137.822 738.002 137.062 733.35 135.921C728.696 134.78 724.534 133.069 720.86 130.788C717.309 128.507 714.738 125.402 713.148 121.474C711.554 111.715 710.637 102.527 710.39 93.909C710.147 85.1646 710.084 76.1665 710.207 66.9149C708.25 67.0415 706.166 67.105 703.962 67.105C701.881 67.105 699.554 67.105 696.983 67.105L697.534 43.9128C699.984 44.0395 702.248 44.103 704.329 44.103C706.533 44.103 708.617 44.103 710.574 44.103C710.574 41.3149 710.514 38.3364 710.39 35.1681C710.27 31.8732 710.207 28.5781 710.207 25.2831C710.207 21.988 710.207 18.8197 710.207 15.7781C710.33 12.7365 710.514 10.0117 710.757 7.6038C712.351 7.35036 714.065 7.28696 715.902 7.41372C717.859 7.54044 719.88 7.73055 721.964 7.98399C724.044 8.11074 726.125 8.23746 728.209 8.36421Z" fill="#C0216B"/>
<path d="M620.142 57.2201C620.876 54.812 621.429 52.9112 621.796 51.517C622.653 49.6159 624 47.9684 625.837 46.5746C627.795 45.1804 629.999 44.0398 632.449 43.1526C635.02 42.1387 637.714 41.4416 640.531 41.0616C643.469 40.6814 646.406 40.4912 649.347 40.4912C651.795 40.7448 654.122 40.808 656.326 40.6814C658.653 40.428 661.1 40.428 663.674 40.6814C667.592 40.9347 671.327 41.7587 674.878 43.1526C678.429 44.4201 681.489 46.3209 684.06 48.8556C685.774 49.9962 687.121 51.8338 688.101 54.3686C689.082 56.9033 689.815 59.8815 690.305 63.3031C690.795 66.5984 691.102 70.2737 691.222 74.3289C691.346 78.2578 691.469 82.3131 691.592 86.4953C691.469 90.1706 691.285 94.3528 691.039 99.0419C690.919 103.731 690.612 108.23 690.122 112.539C689.755 116.848 689.202 120.713 688.468 124.135C687.858 127.557 686.938 129.901 685.714 131.169C683.633 134.21 680.876 136.365 677.448 137.632C674.141 138.899 670.53 139.66 666.612 139.913C662.694 140.294 658.653 140.294 654.489 139.913C650.327 139.66 646.53 139.533 643.102 139.533C636.857 138.393 631.592 135.605 627.304 131.169C624 128.127 621.736 124.325 620.509 119.763C619.285 115.2 618.552 110.448 618.305 105.505C618.062 100.436 617.999 95.3667 618.122 90.2972C618.369 85.2281 618.305 80.6024 617.938 76.4202C617.938 74.1388 617.999 71.9212 618.122 69.7667C618.245 67.4853 618.489 65.1407 618.859 62.733C618.979 61.3388 619.409 59.5012 620.142 57.2201ZM651.001 69.7667C648.427 70.527 646.346 71.9212 644.756 73.9486C644.019 74.4556 643.469 75.7231 643.102 77.7509C642.612 81.8061 642.369 85.8617 642.369 89.9172C642.369 93.8458 642.245 98.028 641.999 102.464C641.878 105.379 642.612 107.66 644.203 109.307C645.796 110.828 647.693 111.905 649.897 112.539C652.225 113.046 654.612 113.173 657.059 112.919C659.51 112.539 661.531 111.905 663.121 111.018C665.205 110.004 666.612 107.913 667.346 104.745C667.836 100.689 668.202 96.6339 668.449 92.5786C668.816 88.3964 668.633 84.4675 667.899 80.7922C667.286 76.3567 665.508 73.1249 662.571 71.0974C659.633 69.0696 655.776 68.6259 651.001 69.7667Z" fill="#C0216B"/>
<path d="M581.195 34.5983C581.195 23.0654 581.746 11.5327 582.846 0L607.826 0.570302C607.826 5.76635 607.766 12.0396 607.643 19.3902C607.519 26.7407 607.399 34.5983 607.276 42.9624C607.153 51.3268 607.029 60.0081 606.909 69.0061C606.909 78.0041 606.909 86.6854 606.909 95.0498C606.909 103.414 606.969 111.272 607.093 118.622C607.216 125.846 607.399 131.993 607.643 137.062C607.029 137.822 605.499 138.202 603.051 138.202C600.601 138.329 597.91 138.329 594.969 138.202C592.155 138.202 589.461 138.139 586.887 138.012C584.316 137.886 582.602 137.949 581.746 138.202C582.602 126.797 582.909 115.327 582.663 103.795C582.542 92.2618 582.296 80.729 581.929 69.1963C581.562 57.6635 581.315 46.1307 581.195 34.5983Z" fill="#C0216B"/>
<path d="M499.968 57.2201C500.702 54.812 501.252 52.9112 501.619 51.517C502.476 49.6159 503.823 47.9684 505.66 46.5746C507.621 45.1804 509.824 44.0398 512.272 43.1526C514.846 42.1387 517.54 41.4416 520.354 41.0616C523.295 40.6814 526.232 40.4912 529.17 40.4912C531.621 40.7448 533.948 40.808 536.152 40.6814C538.476 40.428 540.926 40.428 543.497 40.6814C547.415 40.9347 551.149 41.7587 554.7 43.1526C558.251 44.4201 561.312 46.3209 563.886 48.8556C565.6 49.9962 566.947 51.8338 567.924 54.3686C568.904 56.9033 569.641 59.8815 570.131 63.3031C570.618 66.5984 570.925 70.2737 571.048 74.3289C571.171 78.2578 571.292 82.3131 571.415 86.4953C571.292 90.1706 571.108 94.3528 570.865 99.0419C570.741 103.731 570.435 108.23 569.945 112.539C569.578 116.848 569.028 120.713 568.294 124.135C567.681 127.557 566.764 129.901 565.537 131.169C563.456 134.21 560.702 136.365 557.271 137.632C553.967 138.899 550.356 139.66 546.435 139.913C542.517 140.294 538.476 140.294 534.315 139.913C530.15 139.66 526.356 139.533 522.925 139.533C516.68 138.393 511.415 135.605 507.13 131.169C503.823 128.127 501.559 124.325 500.335 119.763C499.111 115.2 498.375 110.448 498.131 105.505C497.885 100.436 497.824 95.3667 497.948 90.2972C498.191 85.2281 498.131 80.6024 497.764 76.4202C497.764 74.1388 497.824 71.9212 497.948 69.7667C498.068 67.4853 498.315 65.1407 498.681 62.733C498.805 61.3388 499.232 59.5012 499.968 57.2201ZM530.824 69.7667C528.253 70.527 526.172 71.9212 524.579 73.9486C523.845 74.4556 523.295 75.7231 522.925 77.7509C522.438 81.8061 522.191 85.8617 522.191 89.9172C522.191 93.8458 522.068 98.028 521.824 102.464C521.701 105.379 522.438 107.66 524.028 109.307C525.619 110.828 527.519 111.905 529.723 112.539C532.047 113.046 534.435 113.173 536.885 112.919C539.333 112.539 541.353 111.905 542.947 111.018C545.028 110.004 546.435 107.913 547.172 104.745C547.662 100.689 548.028 96.6339 548.272 92.5786C548.639 88.3964 548.455 84.4675 547.722 80.7922C547.108 76.3567 545.334 73.1249 542.397 71.0974C539.456 69.0696 535.598 68.6259 530.824 69.7667Z" fill="#C0216B"/>
<path d="M487.073 53.9882C489.524 59.4379 490.748 65.5844 490.748 72.428C486.83 73.0616 482.482 73.4419 477.707 73.5686C473.053 73.6952 468.645 73.315 464.484 72.428C464.85 70.9072 464.667 69.3864 463.93 67.8655C463.32 66.3447 462.34 65.014 460.993 63.8735C459.769 62.7329 458.299 61.9092 456.585 61.4022C454.994 60.7686 453.401 60.515 451.81 60.6416C448.993 61.1486 446.849 62.2895 445.382 64.0636C444.035 65.7111 443.361 67.5487 443.361 69.5765C443.361 71.6043 444.095 73.6318 445.565 75.6595C447.035 77.6873 449.176 79.2082 451.994 80.222C458.849 81.2359 465.277 82.6301 471.279 84.4043C477.277 86.0518 481.685 88.7766 484.503 92.5786C487.197 97.1407 488.85 101.83 489.461 106.646C490.074 111.335 489.217 117.165 486.89 124.135C484.076 130.345 479.665 134.781 473.666 137.442C467.668 140.103 461.116 141.371 454.014 141.244C447.769 141.498 442.137 140.927 437.116 139.533C432.095 138.139 427.75 136.048 424.076 133.26C420.525 130.472 417.707 127.05 415.627 122.994C413.666 118.939 412.686 114.377 412.686 109.307V108.737V108.357C416.727 107.85 421.318 107.723 426.463 107.977C431.605 108.103 436.076 108.167 439.87 108.167C439.994 111.082 441.28 113.489 443.728 115.39C446.299 117.165 448.993 118.242 451.81 118.622C454.624 118.876 457.198 118.305 459.522 116.911C461.85 115.517 462.953 112.983 462.83 109.307C463.197 106.266 462.523 103.984 460.809 102.464C459.096 100.943 456.828 99.8024 454.014 99.0419C451.197 98.1546 448.013 97.3944 444.462 96.7608C440.911 96.1272 437.423 95.0498 433.992 93.529C427.137 91.1212 422.115 87.3824 418.931 82.313C415.87 77.1172 414.403 71.7944 414.523 66.3447C414.77 60.7686 416.484 55.6357 419.668 50.9468C422.972 46.2577 427.627 43.0893 433.625 41.4419C435.952 40.8079 438.77 40.301 442.074 39.921C445.502 39.5407 449.116 39.3506 452.911 39.3506C456.708 39.3506 460.503 39.6042 464.3 40.1108C468.095 40.4911 471.586 41.0616 474.77 41.8218C480.525 44.3566 484.626 48.4121 487.073 53.9882Z" fill="#1F2937"/>
<path d="M404.386 53.9882C406.836 59.4379 408.06 65.5844 408.06 72.428C404.142 73.0616 399.795 73.4419 395.02 73.5686C390.365 73.6952 385.957 73.315 381.796 72.428C382.163 70.9072 381.98 69.3864 381.243 67.8655C380.633 66.3447 379.652 65.014 378.305 63.8735C377.082 62.7329 375.611 61.9092 373.897 61.4022C372.307 60.7686 370.713 60.515 369.123 60.6416C366.305 61.1486 364.161 62.2895 362.694 64.0636C361.347 65.7111 360.674 67.5487 360.674 69.5765C360.674 71.6043 361.407 73.6318 362.878 75.6595C364.345 77.6873 366.489 79.2082 369.306 80.222C376.161 81.2359 382.59 82.6301 388.591 84.4043C394.59 86.0518 398.998 88.7766 401.815 92.5786C404.509 97.1407 406.163 101.83 406.773 106.646C407.387 111.335 406.53 117.165 404.202 124.135C401.385 130.345 396.977 134.781 390.979 137.442C384.977 140.103 378.429 141.371 371.327 141.244C365.082 141.498 359.45 140.927 354.429 139.533C349.407 138.139 345.059 136.048 341.388 133.26C337.837 130.472 335.02 127.05 332.939 122.994C330.979 118.939 329.999 114.377 329.999 109.307V108.737V108.357C334.04 107.85 338.631 107.723 343.776 107.977C348.917 108.103 353.388 108.167 357.183 108.167C357.306 111.082 358.59 113.489 361.04 115.39C363.611 117.165 366.305 118.242 369.123 118.622C371.937 118.876 374.511 118.305 376.835 116.911C379.162 115.517 380.266 112.983 380.142 109.307C380.509 106.266 379.836 103.984 378.122 102.464C376.408 100.943 374.141 99.8024 371.327 99.0419C368.509 98.1546 365.325 97.3944 361.774 96.7608C358.223 96.1272 354.735 95.0498 351.304 93.529C344.449 91.1212 339.428 87.3824 336.244 82.313C333.183 77.1172 331.716 71.7944 331.836 66.3447C332.082 60.7686 333.796 55.6357 336.98 50.9468C340.285 46.2577 344.939 43.0893 350.938 41.4419C353.265 40.8079 356.082 40.301 359.387 39.921C362.814 39.5407 366.429 39.3506 370.223 39.3506C374.021 39.3506 377.815 39.6042 381.613 40.1108C385.407 40.4911 388.898 41.0616 392.079 41.8218C397.834 44.3566 401.938 48.4121 404.386 53.9882Z" fill="#1F2937"/>
<path d="M280.898 91.0577C278.204 90.931 276.245 90.7409 275.02 90.4873V93.9092C275.143 97.7111 275.265 100.816 275.388 103.224C275.633 105.632 276.429 107.976 277.776 110.258C279.245 113.172 281.327 115.327 284.02 116.721C286.714 118.115 289.347 118.559 291.918 118.052C294.49 117.545 296.632 116.024 298.347 113.489C300.183 110.828 300.979 106.899 300.734 101.703C301.959 101.83 303.612 101.893 305.693 101.893C307.775 101.767 309.918 101.64 312.122 101.513C314.448 101.386 316.651 101.386 318.735 101.513C320.816 101.513 322.53 101.703 323.877 102.084C323.633 105.378 323.387 108.61 323.143 111.779C322.897 114.947 322.59 117.925 322.223 120.713C321.856 123.375 321.366 125.719 320.756 127.747C320.266 129.648 319.592 130.978 318.735 131.739C316.651 134.781 313.959 136.935 310.652 138.202C307.346 139.47 303.734 140.23 299.816 140.483C295.898 140.737 291.857 140.737 287.694 140.483C283.653 140.23 279.918 140.103 276.49 140.103C273.061 139.596 269.878 138.456 266.939 136.681C263.633 134.274 260.878 131.169 258.674 127.367C256.47 123.438 254.694 119.192 253.347 114.63C252 109.941 251.082 104.998 250.592 99.8021C250.102 94.6063 249.98 89.4102 250.225 84.2141C250.592 79.5249 250.959 75.0259 251.327 70.717C251.817 66.2812 252.796 61.9723 254.265 57.7901C255.857 54.1148 258.306 51.01 261.612 48.4753C264.918 45.8139 268.653 43.8496 272.816 42.5824C276.98 41.1882 281.388 40.4276 286.041 40.301C290.693 40.1743 295.224 40.6813 299.632 41.8218C305.265 42.8357 309.795 44.8635 313.224 47.9052C316.651 50.9465 319.225 54.6218 320.939 58.9306C322.776 63.2398 323.877 67.9922 324.244 73.1883C324.61 78.3844 324.61 83.6437 324.244 88.9664C323.387 89.2201 321.733 89.4734 319.285 89.727C316.958 89.9803 314.142 90.2339 310.836 90.4873C307.653 90.7409 304.224 90.931 300.551 91.0577C296.877 91.1844 293.326 91.2478 289.898 91.2478C286.592 91.2478 283.592 91.1844 280.898 91.0577ZM302.387 66.1545C301.163 63.8734 299.449 62.1625 297.245 61.0219C296.265 60.3883 295.285 59.9445 294.306 59.6912C293.326 59.3109 292.163 59.1208 290.816 59.1208C287.877 59.1208 285.49 59.4376 283.653 60.0715C281.816 60.7051 280.347 61.5924 279.245 62.7329C278.143 63.8734 277.286 65.2041 276.673 66.725C276.183 68.2458 275.816 69.8298 275.571 71.4773C275.327 72.8715 275.204 73.8854 275.204 74.519C275.327 75.0259 275.939 75.4062 277.041 75.6595C278.143 75.7862 279.857 75.8497 282.183 75.8497C284.632 75.723 288.183 75.6595 292.836 75.6595C296.02 75.6595 298.408 75.723 300 75.8497C301.592 75.9763 302.694 76.0398 303.306 76.0398C304.041 75.9132 304.408 75.723 304.408 75.4694C304.408 75.0894 304.408 74.3923 304.408 73.3784C304.408 70.8437 303.734 68.4356 302.387 66.1545Z" fill="#1F2937"/>
<path d="M237.297 101.133C239.379 101.133 241.093 101.323 242.44 101.703C242.195 104.998 241.95 108.23 241.706 111.398C241.461 114.567 241.154 117.545 240.787 120.333C240.42 122.994 239.93 125.339 239.318 127.367C238.828 129.268 238.155 130.662 237.297 131.549C235.216 134.591 232.461 136.745 229.032 138.012C225.726 139.28 222.114 140.04 218.196 140.294C214.277 140.674 210.237 140.674 206.073 140.294C201.91 140.04 198.114 139.913 194.686 139.913C188.441 138.773 183.176 135.985 178.89 131.549C175.584 128.507 173.319 124.705 172.094 120.143C170.87 115.581 170.135 110.828 169.89 105.885C169.645 100.816 169.584 95.7469 169.707 90.6774C169.951 85.6083 169.829 80.9823 169.339 76.8001C169.339 72.2379 169.707 67.6754 170.441 63.1132C170.563 61.719 170.992 59.8179 171.727 57.4101C172.461 55.0021 173.012 53.1644 173.38 51.8972C174.237 49.9961 175.584 48.3486 177.421 46.9544C179.38 45.5606 181.584 44.42 184.033 43.5328C186.604 42.5189 189.298 41.8218 192.114 41.4419C195.053 41.0616 197.992 40.8714 200.931 40.8714C203.38 41.1247 205.706 41.1882 207.91 41.0616C210.237 40.8079 212.686 40.8079 215.257 41.0616C219.175 41.3149 222.91 42.0755 226.461 43.3427C230.012 44.6102 233.073 46.511 235.644 49.0457C237.359 50.3129 238.644 52.0239 239.501 54.1783C240.481 56.3328 241.216 58.8675 241.706 61.7825C242.195 64.6972 242.44 67.9922 242.44 71.6675C242.563 75.2161 242.685 79.0815 242.808 83.2637C241.216 83.6437 239.379 83.8338 237.297 83.8338C235.338 83.8338 233.257 83.7707 231.053 83.6437C228.971 83.517 226.889 83.3269 224.808 83.0736C222.849 82.8199 221.073 82.5666 219.481 82.313C218.869 77.8775 217.093 74.4558 214.155 72.0477C211.216 69.513 207.359 68.8794 202.583 70.1466C200.012 70.9072 197.93 72.3011 196.339 74.3288C195.604 74.8358 195.053 76.1033 194.686 78.1311C194.196 82.0597 193.951 86.0517 193.951 90.1073C193.951 94.1625 193.829 98.4083 193.584 102.844C193.339 105.759 194.012 108.04 195.604 109.687C197.318 111.335 199.339 112.476 201.665 113.109C203.992 113.616 206.379 113.743 208.828 113.489C211.277 113.109 213.236 112.412 214.706 111.398C215.93 110.511 216.849 109.054 217.461 107.026C218.196 104.872 218.747 102.971 219.114 101.323C220.338 101.45 221.991 101.513 224.073 101.513C226.155 101.386 228.359 101.26 230.685 101.133C233.012 101.006 235.216 101.006 237.297 101.133Z" fill="#1F2937"/>
<path d="M156.045 101.133C158.126 101.133 159.84 101.323 161.187 101.703C160.942 104.998 160.697 108.23 160.452 111.398C160.208 114.567 159.902 117.545 159.534 120.333C159.167 122.994 158.677 125.339 158.065 127.367C157.575 129.268 156.901 130.662 156.045 131.549C153.963 134.591 151.208 136.745 147.779 138.012C144.473 139.28 140.861 140.04 136.943 140.294C133.024 140.674 128.984 140.674 124.82 140.294C120.657 140.04 116.861 139.913 113.433 139.913C107.188 138.773 101.923 135.985 97.6369 131.549C94.331 128.507 92.0657 124.705 90.841 120.143C89.6167 115.581 88.8818 110.828 88.6371 105.885C88.392 100.816 88.331 95.7469 88.4534 90.6774C88.6984 85.6083 88.5757 80.9823 88.0859 76.8001C88.0859 72.2379 88.4534 67.6754 89.1882 63.1132C89.3106 61.719 89.7391 59.8179 90.4739 57.4101C91.2085 55.0021 91.7596 53.1644 92.1267 51.8972C92.984 49.9961 94.331 48.3486 96.1675 46.9544C98.1267 45.5606 100.331 44.42 102.78 43.5328C105.351 42.5189 108.045 41.8218 110.861 41.4419C113.8 41.0616 116.739 40.8714 119.677 40.8714C122.126 41.1247 124.453 41.1882 126.657 41.0616C128.984 40.8079 131.432 40.8079 134.004 41.0616C137.922 41.3149 141.657 42.0755 145.208 43.3427C148.759 44.6102 151.82 46.511 154.391 49.0457C156.106 50.3129 157.391 52.0239 158.248 54.1783C159.228 56.3328 159.963 58.8675 160.452 61.7825C160.942 64.6972 161.187 67.9922 161.187 71.6675C161.31 75.2161 161.432 79.0815 161.554 83.2637C159.963 83.6437 158.126 83.8338 156.045 83.8338C154.085 83.8338 152.004 83.7707 149.799 83.6437C147.718 83.517 145.636 83.3269 143.555 83.0736C141.596 82.8199 139.82 82.5666 138.228 82.313C137.616 77.8775 135.841 74.4558 132.902 72.0477C129.963 69.513 126.106 68.8794 121.331 70.1466C118.759 70.9072 116.678 72.3011 115.086 74.3288C114.351 74.8358 113.8 76.1033 113.433 78.1311C112.943 82.0597 112.698 86.0517 112.698 90.1073C112.698 94.1625 112.575 98.4083 112.331 102.844C112.086 105.759 112.759 108.04 114.351 109.687C116.065 111.335 118.086 112.476 120.412 113.109C122.739 113.616 125.126 113.743 127.575 113.489C130.024 113.109 131.983 112.412 133.453 111.398C134.677 110.511 135.596 109.054 136.208 107.026C136.943 104.872 137.494 102.971 137.861 101.323C139.085 101.45 140.739 101.513 142.82 101.513C144.902 101.386 147.106 101.26 149.432 101.133C151.759 101.006 153.963 101.006 156.045 101.133Z" fill="#1F2937"/>
<path d="M66.6726 42.9623C69.7338 43.089 73.2237 43.2791 77.1418 43.5328C77.2642 44.293 77.3255 45.0533 77.3255 45.8139C77.4479 46.5741 77.5092 47.3347 77.5092 48.095V49.9961C77.1418 63.6833 77.2032 77.1803 77.693 90.4872C78.1828 103.668 77.999 117.038 77.1418 130.598C77.1418 132.246 77.0808 133.893 76.9581 135.541C76.9581 137.188 76.2236 138.139 74.7542 138.392H72.5502C70.591 138.392 68.5704 138.329 66.4889 138.202C64.5296 137.949 62.5707 137.822 60.6115 137.822C59.2645 137.822 57.9178 137.949 56.5707 138.202C55.3461 138.329 54.0604 138.392 52.7137 138.392C51.8564 138.139 51.2443 137.632 50.8768 136.872C50.6321 136.111 50.5094 135.224 50.5094 134.21C50.5094 132.816 50.6321 131.676 50.8768 130.788C51.1219 129.901 51.2443 128.824 51.2443 127.557C48.3055 130.598 44.5707 133.196 40.0402 135.351C35.6323 137.505 31.2853 138.583 26.9997 138.583C22.2242 138.583 18.1222 136.872 14.6937 133.45C11.3876 130.028 8.63254 125.782 6.42849 120.713C4.22444 115.644 2.5714 110.131 1.46937 104.174C0.48979 98.2181 0 92.7052 0 87.6357C0 81.2991 0.795908 75.4694 2.38772 70.1466C3.97954 64.8238 6.12237 60.2613 8.81622 56.4594C11.6325 52.5308 14.9386 49.4891 18.7344 47.3347C22.5303 45.0533 26.5711 43.8496 30.8568 43.7226C33.0609 43.7226 35.0811 43.7861 36.9179 43.9127C38.8772 43.9127 40.6526 44.2295 42.2444 44.8635C43.8362 45.3701 45.2443 46.2573 46.4689 47.5249C47.6933 48.6654 48.7342 50.3129 49.5911 52.4673C49.4688 50.4395 49.5301 48.7286 49.7749 47.3347C50.1423 45.8139 50.326 44.293 50.326 42.7722C50.326 42.6455 50.6931 42.5821 51.428 42.5821C52.2849 42.4554 53.2035 42.4554 54.1831 42.5821C55.1627 42.5821 56.1423 42.5821 57.1216 42.5821C58.1012 42.5821 58.7747 42.5821 59.1421 42.5821C61.2237 42.7087 63.7338 42.8357 66.6726 42.9623ZM28.8364 72.9981C26.0201 75.4059 24.3058 78.1942 23.6936 81.3626C23.2038 83.0101 22.8977 84.721 22.7752 86.4952C22.6528 88.1427 22.5916 89.7902 22.5916 91.4377C22.5916 97.1407 23.9997 102.02 26.816 106.075C29.7547 110.004 33.7954 111.968 38.9382 111.968C41.9994 111.968 44.2647 111.461 45.7341 110.448C47.3258 109.307 48.4278 107.786 49.0403 105.885C49.7749 103.858 50.1423 101.45 50.1423 98.6615C50.2647 95.7465 50.326 92.515 50.326 88.9664C50.326 84.5309 50.2647 81.0458 50.1423 78.511C50.1423 75.8497 49.8362 73.8219 49.2237 72.4277C48.7342 71.0338 47.8157 70.1466 46.4689 69.7663C45.2443 69.386 43.3464 69.1962 40.775 69.1962C35.7546 69.1962 31.7752 70.4634 28.8364 72.9981Z" fill="#1F2937"/>
</svg>
